<mxfile host="www.draw.io" modified="2019-11-22T23:39:03.252Z" agent="Mozilla/5.0 (Macintosh; Intel Mac OS X 10_15_1) AppleWebKit/537.36 (KHTML, like Gecko) Chrome/78.0.3904.97 Safari/537.36" etag="ocwV1nGAKqFpisDsbF_L" version="12.2.9" type="github" pages="1">
  <diagram id="qovClelAOwwP19SrLWk3" name="Page-1">
    <mxGraphModel dx="950" dy="625" grid="1" gridSize="10" guides="1" tooltips="1" connect="1" arrows="1" fold="1" page="1" pageScale="1" pageWidth="850" pageHeight="1100" math="0" shadow="0">
      <root>
        <mxCell id="0"/>
        <mxCell id="1" parent="0"/>
        <mxCell id="eI4Sz7O7ysRIpUwbgWsQ-1" value="s" style="shape=image;verticalLabelPosition=bottom;labelBackgroundColor=#ffffff;verticalAlign=top;aspect=fixed;imageAspect=0;image=data:image/jpeg,/9j/4AAQSkZJRgABAQAAAQABAAD/2wBDAAMCAgICAgMCAgIDAwMDBAYEBAQE&#xa;BAgGBgUGCQgKCgkICQkKDA8MCgsOCwkJDRENDg8QEBEQCgwSExIQEw8QEBD/&#xa;2wBDAQMDAwQDBAgEBAgQCwkLEBAQEBAQEBAQEBAQEBAQEBAQEBAQEBAQEBAQ&#xa;EBAQEBAQEBAQEBAQEBAQEBAQEBAQEBD/wAARCAJjAqkDASIAAhEBAxEB/8QA&#xa;HgABAQACAgMBAQAAAAAAAAAAAAcFBggKAQMEAgn/xABnEAAABQMBAwMOCQgE&#xa;CQcJCQAAAQIDBAUGBxEIEiETd9UUFhciMTI3OEFXlZa1thUYI1FWWGFxlzNC&#xa;UmJngdLjcnaRoQkkNFN1k6KztCUmgoOUstEZNTZDRGOHscFUZHSEhpKm09T/&#xa;xAAUAQEAAAAAAAAAAAAAAAAAAAAA/8QAFBEBAAAAAAAAAAAAAAAAAAAAAP/a&#xa;AAwDAQACEQMRAD8A/qmAAAAAAAAAAAAAAAAAAAAAAAAAAAAAAAAAAAAAAAAA&#xa;AAAAAAAAAAAAAAAAAAAAAAAJVV86tVWqybWwxasjINZiOGxLkxpKYtEpzpa6&#xa;plVFRKRvEZaKajpfeSem82kuI9RYpyVex9UZay5UWIq++oFlmujwyI/zXJhK&#xa;Oc6ZFw3m3mEnqfyZcNA3a8slY6x1HRLv+/LfttpwtW1VWpMxeU46aJ5RRbxm&#xa;fAiLUzPgNNLaWxzO4WtTL2ujXvXKJZtUkx1fdJ5Ao5/6wbHZmGcUY9kLn2bj&#xa;6h0ye6er1QRESua+emm87JXq84enlWszG5gJV2brqf40vZqyrNT5FblGi6/u&#xa;k1Foy/eQdme/EcZOyvlVlPlV1Xbbn9zdWUf9wqoAJT8YWlwuNy4qynRUl3yl&#xa;WfKqCU/edPKRw+3uDI0DaIwfclRRRafk6hMVVzvKXUZPUE5X3RpG49/sCijG&#xa;3BbNt3ZTl0e6bfptZgOd/FqERuQyr70LI0n/AGAMkAkytnK16AXL4jua48bv&#xa;o4oYoM3fpnDuJOmySdhpT5D5Npteh8FkZEZepy/MyYz8J1ls3fQW+/uOzYzh&#xa;yWEER6rk0lSlvaERFqqK5IUZn+SQRagK8Aw9p3ha190Ni5LNuCDWaZI1JEmG&#xa;8TiN4uCkK04pWk+CkK0UkyMjIjLQZgAAAAAAAAAAAAAAAAAAAEsunLFbrFzz&#xa;8ZYVpkGtXNTDQmsVOea/gegbySUSZK2z3npJpNKkxWzJWikqcWylSVGFDr1w&#xa;UG1qVIr1z1uBSKZETvyJs+SiOwyn51uLMkpL7TMTRO0CV0HyeHsZ3XfKFHom&#xa;qIjJpdI0/TKZNNvl0dwt6Mh/j9x6fVbuz/bDVWjXfkqoy8iXXGc5Zip19KFs&#xa;QV8f8hhJIo8QiIzSS0I5U08FuuHxFRASf4O2nbm7adctg2JHUepsU2BJr0si&#xa;+YpLyozST++Osh+iwVV6me/eGesnVo1d82xU49HaL7E/BrEdwi+9Zn9pirAA&#xa;lJbL+F3T1qtBrVaM+6dbuiq1Q1fecqS5r+8fr4qmzKr/ACjZ/wAfSz/Sl27E&#xa;kGf3m4hRmKoACVlso7LqfyezhjBo/natGAg/7UtEY8Hss4AR/wCb8Z06lH5D&#xa;pLr1PMvuOOtBl+4VUAEp+LpbcEv+a2Qsn2+ou95C9qjNQn+i1PckNEX2EjT7&#xa;B46wM9UDRVr58j1xtHcYvC2I0hSy/R5anqh7p/rG2v7SMVcAEmPJOZ7T0LIG&#xa;DnKrET+UqVkVZFSSlP6a4klMeQX9Bkn1feWpls9i5hxvkh5+Dad0MPVOIklS&#xa;6RLachVOIR/5+FISiQz/ANNBeUbkNTv3FWPcnR47V7WvFqD0JRrgzkmpidBW&#xa;ZGXKRpTRpejr0My3mlpVxPjxAbYAjD8zKWCmlzKzUKnkiwY5KW9KNgnLko7f&#xa;d3lJaSSaiwgu6aUpkpTxMpB6mVWt24qFdtCgXPbFXiVWk1SOiVCmxHScZkMr&#xa;LVK0KLgZGQDIgAAAAAAAAAAAAAAAAAAAAAAAAAAAAAAAAAAAAAAAAAAAAAAA&#xa;AAAAAAAAAAAAAAAAAAAAAAAAAAAADG3HcdCtGgz7nuerRaXSaWwuVMmSXCQ0&#xa;w0ktVKUo+4QkkKk3htEslVLyj1e0Mcuq3oNvpcXEqlfZ8jtRUkyXGjrLimIk&#xa;0uKSfy6i1UwX6hQmtoK/nK7VWVO48sOqqZo8VR6sV+tR1brs1wtdFsRXSU0y&#xa;k+Bvtuu6HybKhawHx0ejUi3qXGolApUOm06E2TMaJDYSyww2XcShCCJKUl8x&#xa;FoPsAAAAAAAcM8O7Zkq58m5Eeql8W/cdtTKHVrls2jU6TF6qp0akSHYz7D6m&#xa;tV70pso8tvldTJLjhEWiNC26btlXFb9rKr924OmQJtToNMuS26VHr7Eh+qQ5&#xa;c+JCWhZm2lMd9pyfFNSDNaDJ1PyhHvbocngE8xVk+t3xUrotW8rNate5rTlx&#xa;2pkFmqJqDLseQyTseQ08TbZmlRcokyUhJpW0suJaKOhgAAACaXhh3lK69kTF&#xa;lWRaV6KLekPNtmqnVrTuN1KMkyJ8tO1J5JpfbLvV7uqFfZjDKzd8vVG17job&#xa;ts3tQNwqzQZDpOG2lRmTcqO6REUiK5uq3HkkXcNK0ocSpCd/E8y1jSVdzdOv&#xa;GzpLNNvy1Dck0CoL1JtzeIuVgyd3iuK+SSS4njumSHE9u2gyChgNWxnf0HJd&#xa;mQbshwZFOee5SPPpsky6ops5lZtyYj2nDlGnULQenA93UtSMjPaQAAAAABPL&#xa;xzfbNm3g5Yztu3dWasxTY1WfbodBkVBLEZ919plTimknumpcV8iI/wBAwFDA&#xa;Sr4xNvl3+Nsqp/8A0HU1f/Jow+MZapd/YGVU/wDw7rSv/lGMBVQEq+MhZRd/&#xa;ZeVU/wDwzuBX/wAoZjiHgT/CkzZ2WpeAM22LUqhWo1bfocOv25RZTa5S23VI&#xa;JUmlul1QwrRGqiSRqSZmRtJ3TAcz833bX7atCNSrOfbYue7KnGtyivuI30Rp&#xa;EgzNck0/nEwwh9/d/O5HTyjP4+sC2cZWpDs604amIMTfWpx1fKPyn1qNbsh9&#xa;w+Lrzi1KWtZ8VKUZmNM2gJh23GsbI8km/guy7vjVGrLWhKiYhSYsqnOP6mWq&#xa;UtdXpdUotDJDa9eGpCrAAAAAMXdNzUKyrZq143RUEwKPQoL9SqEpSFKJiMy2&#xa;bjrhkkjUZJSlR6ERnw4EYyg0fOVkVbJuFb+xxQZERipXTbNTosN2WtSWG35M&#xa;VxpCnFJSpRIJSyMzJKj010I+4AwVM2o8D1miV24abfrb0K3FwkTz+D5aXf8A&#xa;HFbsNTLRtE5IS+ojJpTKVpcMj3DVoM1a2c8VXnJp8K3ruZekVSHUJ0Zl6M9G&#xa;XyUF5DEwlpdQk23GXHW0rbXurTvEZp04iS5g2f8AK9xXjUbtx/WaVFYlUG1q&#xa;Q7CTWZVJky0U6bUnpLKZsdlbkMlomsEh5ojc1QtOiCMljRF7HGXpOLXbXgXD&#xa;b1uXIi8atUI9RYrM+paUKsxVR6jGVIktcuuQhDylNuLNW+7GYcUaN40pCoWz&#xa;tt4Pr151G1Jlxt09nqqkNUSoLjylMVFiowo8mK+4vkCRDS4qRyTfLLLlDRqk&#xa;9T3S3lO0Rhtd11Cy03o38K0w5iJCeo5JMG7EbU5KZbkcnyLrzSELUtptalpJ&#xa;J6pLQxHbs2bsqTLjv60bZp1iMY5yFUbdU9JcnyW6nS6fTosNh1puOmObbqll&#xa;FNLXyyCb13z3jPdTrdc2Vs+VvIjV01CqUCpIgXFcU5qbMvCqGl+BU4c+Ky21&#xa;S+pzhwVR0TW94299b5tqM3Ebx7wcpcdZMsfLVtpu/HldRWaK46plqa2w6206&#xa;pJEZm2biU76e2Ltk6pM9SI9SPTaBrOMrWkWPja07Kl9S8vb9DgUt3qXXkd9h&#xa;hDZ8nqRHuapPTUi4acC7g2YAAAABG6JTWMN5oYtWitJj2hkwps+LCQWjdPuB&#xa;kuWkE0nuIblMcq8aC4E7GdX3XVCyCU37MOv5zxnZ1NJtx63HKheNTVuJUceN&#xa;1DJpzCTMy1Qp12c4adNDMozpdwlEAqwAAAAAAAAAAAAAAAAAAAAAAAAAAAAA&#xa;AAAAAAAAAAAAAAAAAAAAAAAAAAAAAAAAAAAAAAAAAAAAJ7nu6K1a2MKmq1pJ&#xa;R7irb0W3qI7pryM+fIbisvaeUmlPE6f6rahQhKc2Fy95YWprvGPMyArliPuH&#xa;yNBq8lvX/rWGj+8iAb9Z1p0SxLUpFmW5G6npdEhMwYjZnqom20kkjUf5yj01&#xa;NXdMzMz4mMwAAAANKv7KlKsaoU+3o9Arlz3HVm3H4VCobDTktxhs0k4+tTzj&#xa;bLLSVLQnlHnEJNS0pIzM9AG6jFXVQU3VbFXthVVn0xNXgPwDmwFoRKjE62pH&#xa;KsqWlSScTvbyTUlREZFqR9wT/syZF+qdlX0lavTIdmTIv1Tsq+krV6ZAYfIm&#xa;y/ZFaxzRLasyAqi1GyKZJi265CNlk3CXS34BRpCzbPfZW2925FoeqUqIy04z&#xa;at7GFZkYdRRV5Aui4LxXSLct+NJqc+Kj4EpsWpQpUpmG4yw3qr/Ft4nXSccU&#xa;bLRGo9ONh7MmRfqnZV9JWr0yHZkyL9U7KvpK1emQGYxdiKBjORcFZfuuvXVc&#xa;F0y2pVWrdbVH6pkci0TTLZIjNMstttoTolKG08VKM9TMzG+iVdmTIv1Tsq+k&#xa;rV6ZDsyZF+qdlX0lavTICqgJV2ZMi/VOyr6StXpkfh7N95wW1S6xsvZXgwmi&#xa;3n5CV0CabSC7quQiVR19zT9Fttaj8hGArADG23clCvCgU+6bZqbNRpVVjolQ&#xa;5TJ6odaUWpGWvEvtI9DI9SMiMhkgElpCCsPaKqlBY+TpOSaMq4WWy4Ibq8BT&#xa;MeWovIRvR34KtPKcZ1XEzPStCKbQlYqVsXthq46FalTuSold06nFTKY7Faky&#xa;GHaDU3FkhUp1lkiSqO0s99xPBHDVW6k8t2YMl/VTyX6VtnpYBVQEq7MGS/qp&#xa;5L9K2z0sHZgyX9VPJfpW2elgFVEqoHjT33zf2n7Rr4dmDJf1U8l+lbZ6WHzY&#xa;zYvivZkvDJFzY0rVm0+oWzQaHDYq8ynvvvvRJVUeeWRQpL6Uo3ZzJEalEZmS&#xa;uGhamFeAAAeDLUjI9ePzHoJ1h7Z5w/giC9FxpZcSnS5mqp9VeNUmoz1me8pU&#xa;iU6anXNVaq0NW6RmehEKMAD5qjToFXp8qk1WGzLhTWVx5Md5BLbeaWk0rQpJ&#xa;8DSZGZGR90jETo9ZuLZqbVbl/SZlZxfHMk0a6DJb8mgMfmw6mRarUwjvW5pE&#xa;ZEgkpf3TTyzl1Hju8DAein1CBVoMep0qdHmw5TaXmJEd1LjTrai1SpCkmZKS&#xa;ZcSMj0MfQJNLwBEt6e/XMJXdOxzOkuqkSYEJhEqhzHVGalLeprhk2hSlHvKc&#xa;jKYdWem8s+4PynIma7NPkciYbO4IiD0OsWNNRKI0/puwJRtPteUtxlco+5x4&#xa;noFbATKlbSmEKlNbpMzIEK36o4e6mmXK27RJqleUkx5yWnFGX6qTFJjyI8tl&#xa;EmK+28y4klIcbUSkqL5yMuBkA9gAAAAAAAA1C8cwYox8smb4yRbVDfUeiI86&#xa;qMtPuK8iUNGrfWo/ISSMzAbeAkx57k3Fo1inEt7XabnBE6RTzolNT+sqRUOS&#xa;W4j9Zhp77CMtTL1LsDNOREkeTsis2nSnPylAsZ1xt1xJlxQ9V3UpkKLj3YzU&#xa;VfAu2MjMgGUvvMbNKrD2PccUtF33+polppDL25HpyFF2sioyCI0xWvKRHq65&#xa;3G21nrp92JsayrBp9Qqdy147hvC5H0zrgrJs8kmQ8Sd1DLDep8jGZT2jTWp6&#xa;FqpRqWta1Z6yrEs7HNDRbdjW5BotNS4t82IrRJ5R1Z6rdcV3zjij4qWozUo+&#xa;JmZjPAAAAAAAAAAAAAAAAAAAAAAAAAAAAAAAAAMbctabtu3KrcTzCnm6VCfm&#xa;raSehrJps1mkjPuGe7oAyQCM27k7aEuW36ZccDA1rJjVWGzNZJy/Fkom3UEt&#xa;JGXwfwPRRajI9ee0f5iLT9fV9HgKqAlXXntH+Yi0/X1fR4dee0f5iLT9fV9H&#xa;gKqAlXXntH+Yi0/X1fR4dee0f5iLT9fV9HgKqAlXXntH+Yi0/X1fR4dee0f5&#xa;iLT9fV9HgKqAlXXntH+Yi0/X1fR4dee0f5iLT9fV9HgKqAlXXntH+Yi0/X1f&#xa;R4dee0f5iLT9fV9HgKqAlXXntH+Yi0/X1fR4dee0f5iLT9fV9HgKqAlXXntH&#xa;+Yi0/X1fR4dee0f5iLT9fV9HgKqAlXXntH+Yi0/X1fR4dee0f5iLT9fV9HgK&#xa;qAlXXntH+Yi0/X1fR4dee0f5iLT9fV9HgKqAlXXntH+Yi0/X1fR4dee0f5iL&#xa;T9fV9HgKqAlXXntH+Yi0/X1fR4dee0f5iLT9fV9HgKqJPtIK+BrPomRT4N2F&#xa;c1MuCUr/ADcEnDjTnfuRDlSVn9iB++vPaP8AMRafr6vo8fJVq7n6vUqbQ6xs&#xa;+WdLgVGO5ElR3b8WaHmXEmlaFF8H8SNJmR/eAsADjBh/I+0bbrbmEK5iO3p9&#xa;wWZDYS1Km3splyp0tWqY0pGkFXK7qUkw6vUj5VpSjSkloI6V157R/mItP19X&#xa;0eAqokNqySmbV2SG1tFrTrEtBlpRnrpyk6vLWZfo72jZH8/Jp+YtPp689o/z&#xa;EWn6+r6PGr4dk3vN2mMpzr9tanUCe/ZtnKaiQasdRbNkpdeSSzdNlrRRqSst&#xa;3dPQiI9T10IL6NPvjMeIsZSosHJOVLPtOTNbU7GZrlciwFvoI9DUhLy0moiP&#xa;gZlw1G4DjTlCkZGrO11RI+NbmtqiT0Y2nqfer1BdqrK2vhOMW6htqVHNCt40&#xa;nvGpRaEZbvHUg5EUOu0S5qTGr1t1mDVqZNRysabBkIfYfR+khxBmlRcO6Rj7&#xa;h/OvHNfplsUu3bDzDmGbjm1otZyH1wVWiVw6JHnXVGrad1pL6Nw47JsPPvsx&#xa;SMiWRaHym5232N7SV82xi24qflbI8+lX/XLWsifQYLzxxp0hUnREl9hgtDSo&#xa;zI1SCQWjZkre0IiAf0DYlRpXKdTSGnuRcNpzk1krcWXdSencMvmHtH84bqui&#xa;q46uavWvRchOUmhVHK1wquuRWMgy6CiMooTT1OZdqKGZDkJD++84ndQjljYQ&#xa;jf04H7LqzDkijWvYFwXjmd+XKYthNQaplKuaXRqlVDKqSERpkEpENpmvPLjI&#xa;YbciOtN7xmhxKdH0GA/o0A8EepEehlrx4jyAlOzOkm8a1JhBElti+74YaQXc&#xa;Q2i6KmlCCLyElJERF5CIiFWHGrCVzZrp9r3DDtHE1vVmkt5AvjqedLu5UJ13&#xa;W56kat5kobm5oo1JLtz1JJHw10Larsy5nGyLbqN3XPhmz4NKpUdUmU+u/XD3&#xa;UJLuERU7VSjPQkpIjNSjIiIzMiAZO6ldc20bY9vMdu1ZtFqV0Tj/AM09JIoE&#xa;Iv8ApoVUz1/9yfz8KwONeKJG01BOu5Cr2B7dKu3zLbqUhmZepsvU6GhokRKe&#xa;pCYKyI2W9d8yVop1x5XDe0Lf+vPaP8xFp+vq+jwFVASrrz2j/MRafr6vo8Ov&#xa;PaP8xFp+vq+jwFVASrrz2j/MRafr6vo8OvPaP8xFp+vq+jwFVASrrz2j/MRa&#xa;fr6vo8OvPaP8xFp+vq+jwFVASrrz2j/MRafr6vo8OvPaP8xFp+vq+jwFVASr&#xa;rz2j/MRafr6vo8OvPaP8xFp+vq+jwFVASrrz2j/MRafr6vo8OvPaP8xFp+vq&#xa;+jwFKqlIpNchOU2t0uJUIjvByPKYS62v70qIyMTh/ZewGqQuXS8Z0y35Dp7y&#xa;37cW7RXVK/SNcFbStft11H4689o/zEWn6+r6PDrz2j/MRafr6vo8B4LZ6pUQ&#xa;/wDkHKuVaWXkLrzmT9P+3KfM/wB+o/XYXvVrhD2n8qRy8hcjb72n73qWs/7x&#xa;4689o/zEWn6+r6PDrz2j/MRafr6vo8AThrIJlo9tWZTcL5uoLYR/emkEf94H&#xa;gedJ4VfPGVZ5H3SKsx4ev74kdky/cZB157R/mItP19X0eHXntH+Yi0/X1fR4&#xa;Dx8WLEkotLhjXPcuvfJuG76tVGlf9VIkraIvsJJF9g26z8W4zx6jk7Cx5bVu&#xa;FpofwVSmIhn8+ptpIz/eNS689o/zEWn6+r6PDrz2j/MRafr6vo8BVQEq689o&#xa;/wAxFp+vq+jxi7hzBmiyosKs3lhOgRaRIq9LpMiRDvNUl5k5s5mIhwmjgoJZ&#xa;JXIQZlvFwI+IC0gAAAAAAAAAAAAAAAAAAAAAAAAAAAAAAAAA1fKfgxu//QNQ&#xa;/wCHWNoGr5T8GN3/AOgah/w6wHqxD4J7K/q7Tf8Ahmxto1LEPgnsr+rtN/4Z&#xa;sbaAAAAAAAAAAAAAAAAAAAAAAAAAAAAAAAAAAAAAAAAA0HK+MpF9R6bXrYrX&#xa;wBelsurlUCsE2biGlrIidjSGyMuWivJSSXW9S7iVpNLiEKT+MYZYTej8q0rr&#xa;ojlr31RmyVVaBIdJfaa7pSojuhFJiLPvXUlw13XEtuEpBUEankLGNqZLhRGb&#xa;gYkszqW8cmlVWBIVGn0x8y05WO+jtkGZaEpPFCy7VaVJM0mG2CVW540+Qvtx&#xa;/ZunpG4x8nXdmLFJ9T5Ct6VkG3G+9uW24JfCjCOJmc2lo4u6cC5SHvmoz/yd&#xa;sh63WrdzFVo2U8C5cpcC5aZFVSJj5RCqMZ6MazcKJUIXKNOoUhzeUjt2XUGp&#xa;wtdFqSYWQBKutzan88mKvw0qPTodbm1P55MVfhpUenQFSdZZfSSXmkOJJRKI&#xa;lJIyIy4kfHykPJoSaiWaS3iIyI9OJEfdL+4hLOtzan88mKvw0qPTo1TJtX2p&#xa;8dWu3cvZQxVUOUrFHpPI9juotadXVGPC5Te+HFd51Rv7unbbm7qnXeIL47Hj&#xa;voW2+w24hzTeStJGSvvI+6PK2WXFoccaQpTRmaFGkjNJmWhmXzcD0Et63Nqf&#xa;zyYq/DSo9Oh1ubU/nkxV+GlR6dAVUBJZVF2noUZ2ZMzZiVhhhBuOuu43qCUI&#xa;SRampSjr2hEReUxJp+UdpO9lu25hfJVlXw+4pTD1aoNgSafS4J8SNXwtKqsm&#xa;MpRGWhpYjzFpMy3mtD1AUrB9z29ZmG7kum6qxFpdJp99329JlyXCQ22nrqqh&#xa;Fx8pmZkREWpmZkREZmRD827QrmzldFNyNf8ARptCsygySm2tbE1BtyZslP5O&#xa;qVFv8w099HjK4tmZOuETpIQz+cR7NMGzIdAl5Br67sqtuEblJYWlSKbSn1qU&#xa;tx9lhSlG9KUta1Klvmt01LUaOSSo0C2gAAAAAAAAAAAAAAAAAAAAAAAAAAAA&#xa;AAAAAAAAACVbTPguj/1ws/3jpwqolW0z4Lo/9cLP946cAqoAAAAAAAAAAAAA&#xa;AAAAAAAAAAAAAAAAAAAANXyn4Mbv/wBA1D/h1jaBq+U/Bjd/+gah/wAOsB6s&#xa;Q+Ceyv6u03/hmxto1LEPgnsr+rtN/wCGbG2gAAAAAAAAAAAAAAAAAAAAAAAA&#xa;AAAAAAAAAAAAAAAAAAAANIvbC2Mcg1Fuu3JajHw3HRycetwHnYFVjp4cG5sZ&#xa;SJCC4FwSsi4Fw4DdwASgsX5dtr/0Bz7PkMJ7yDedGZrDSC/RS8wqLJP+k486&#xa;ZHx49weSr+05R+1n41x/cbRd1+mXRKgPK+6O/DWgv+0f+IqwAJV2WMsRu1nb&#xa;Lt6PqLunTa7QXU/uN+cyf9xCabQ2Vcg1LHDEZ7ZoyHS0FdVquFIn1K3eSNaK&#xa;9AUhv5Cpur1WpKUEe7oSlkajSkjUXKASraZ8F0f+uFn+8dOAeOvraEqXa0bA&#xa;NIgGfcVcF6NxyT9plDjStfuL+3yjwdu7StxcKxkizbQjK75qgUF2oS0/0ZUx&#xa;0mv7Yh//AEFXABK4+zfj+fIan5GmV3I8xlaXULu6f1bGQ4R6ktEBCUQW1kZE&#xa;ZKRHSepFx4FpUWGGYzLcaMyhpppJIbbQkkpQki0IiIuBEReQfsAAAAAAAAAA&#xa;AAAAAAAAAAAAAAAAAAAAAAAAAAAAAAAASraZ8F0f+uFn+8dOFVEq2mfBdH/r&#xa;hZ/vHTgFVAAAAAAAAAAAAAAAAAAAAAAAAAAAAAAAAABq+U/Bjd/+gah/w6xt&#xa;A1fKfgxu/wD0DUP+HWA9WIfBPZX9Xab/AMM2NtGpYh8E9lf1dpv/AAzY20AA&#xa;AAAAAAAAAAAAAAAAAAAAAAAAAAAAAAAAAAAAAAAAAAAAAAAAAEq2mfBdH/rh&#xa;Z/vHThVRKtpnwXR/64Wf7x04BVQAAAAAAAAAAAAAAAAAAAAAAAAAAAAAAAAA&#xa;AAAAAAAAAAAAAEq2mfBdH/rhZ/vHThVRKtpnwXR/64Wf7x04BVQAAAAAAAAA&#xa;AAAAAAAAAAAAAAAAAAAAAAAAcU/8I9i28rzwFNyFjK4KrR7vx23Iq8dyny3G&#xa;VSqcpvdnxlkk9FpUynfNJke9yW53FnrysABxN/wbeLbzs/AcPI2TrgqtXu3I&#xa;jUaqOrqEtx44lMbbNNPjIJRmSEJaWaySki3eW3dO1IcsgAAAAAAAAAAAAAAA&#xa;AAAAAAAAAAAAAAAAAAAAAAAAAAAAAAAAAAAAAHEjbZ2qcW4qcgYoyKVZocqb&#xa;UrYuGBVXKep6nzI8auxXpSELZNaycaajuLUlaE6lu7u8akkfLcceNtTZDoW1&#xa;7YFHtiXVG6PV6FVmZsKpmzyimo61JTLZL+m0RKL51tN68NQFKwhmO3s9Y+iZ&#xa;NtKjVqBRKlIkNU9dWjoYdmMtOqb6oQhK1GTSzSo07+6oyLU0kRlrvoxdrWzR&#xa;LLtqlWhbNPbg0iiQmafBjNl2rLDSCQhBfclJEMoAAAAAAAAAAAAAAAAAAAAA&#xa;AAAAAAAAAAAAAAAAAAAAAAAA/nl/hWMWZYiRLbzzhSv3BDmlIp9uXBCpkp1K&#xa;ZCETOXpchTaT3TNqYoyJRkZ77rOmmhj+hoAJfs04kmYSwvbth1msy6vXGmVT&#xa;a5UZUlch2XU5CjdkuG4szNRcotREflIiM+JmKgAAAAAAAAAAAAAAAAAAA464&#xa;QtDLWSsL2Dkau7VOSmKldVr0qtzGolLtdLDb8mI284ltKqQpRIJSzIiNSj00&#xa;1M+6N17DeRfrY5V9G2r0MGyd4rGG+b+3vZzAqoCVdhvIv1scq+jbV6GDsN5F&#xa;+tjlX0bavQwqoAJV2G8i/Wxyr6NtXoYOw3kX62OVfRtq9DCqgAlXYbyL9bHK&#xa;vo21ehg7DeRfrY5V9G2r0MKqACVdhvIv1scq+jbV6GDsN5F+tjlX0bavQwqo&#xa;AJV2G8i/Wxyr6NtXoYOw3kX62OVfRtq9DCqgAlXYbyL9bHKvo21ehg7DeRfr&#xa;Y5V9G2r0MKqACVdhvIv1scq+jbV6GDsN5F+tjlX0bavQwqoAJV2G8i/Wxyr6&#xa;NtXoYOw3kX62OVfRtq9DCqgAlXYbyL9bHKvo21ehg7DeRfrY5V9G2r0MKqAC&#xa;VdhvIv1scq+jbV6GDsN5F+tjlX0bavQwqoAIpQI2QLGz7bVlVfM913nRbgs+&#xa;4ao9GrsGjt8hKhTaO2y40uDBjL7yfIJRKNST1SehGWotYlVx+NPjzm/vL2jb&#xa;gqoAAAAAAAAAAAIVSaTknJWScpss59vW1abat0RKJTabRKfQlMNsKoVLmKUp&#xa;UynSHlLU9NeMzNzTTdIiLQXUSrDfhFztzgQ/dWggHYbyL9bHKvo21ehg7DeR&#xa;frY5V9G2r0MKqACVdhvIv1scq+jbV6GDsN5F+tjlX0bavQwqoAJV2G8i/Wxy&#xa;r6NtXoYOw3kX62OVfRtq9DCqgAlXYbyL9bHKvo21ehg7DeRfrY5V9G2r0MKq&#xa;ACVdhvIv1scq+jbV6GDsN5F+tjlX0bavQwqoAJV2G8i/Wxyr6NtXoYOw3kX6&#xa;2OVfRtq9DCqgAlXYbyL9bHKvo21ehg7DeRfrY5V9G2r0MKqACVdhvIv1scq+&#xa;jbV6GDsN5F+tjlX0bavQwqoAJV2G8i/Wxyr6NtXoYOw3kX62OVfRtq9DCqgA&#xa;lXYbyL9bHKvo21ehg7DeRfrY5V9G2r0MKqACVdhvIv1scq+jbV6GGqZIt3KO&#xa;L6TRLthbSeQK3/zwtalyKdVKbbvUsqLOrkKFIbWceltOlqzJc0NDiVErQ9eA&#xa;5ACVbS3g6pHOBYnvVSwFVAAAAAAAAAAAAAR/KC73r+aLIxzbWUbgsum1G17k&#xa;rc52iRKY8/Jfhy6OywlSp8SSlKCTOkGZISkzM06nw0H19hvIv1scq+jbV6GC&#xa;4/Gnx5zf3l7RtwVUBKuw3kX62OVfRtq9DB2G8i/Wxyr6NtXoYVUAEq7DeRfr&#xa;Y5V9G2r0MHYbyL9bHKvo21ehhVQASrsN5F+tjlX0bavQwdhvIv1scq+jbV6G&#xa;FVABKuw3kX62OVfRtq9DB2G8i/Wxyr6NtXoYVUAEq7DeRfrY5V9G2r0MHYby&#xa;L9bHKvo21ehhVQASrsN5F+tjlX0bavQwdhvIv1scq+jbV6GFVABKuw3kX62O&#xa;VfRtq9DB2G8i/Wxyr6NtXoYVUAEq7DeRfrY5V9G2r0MHYbyL9bHKvo21ehhV&#xa;QASrsN5F+tjlX0bavQwdhvIv1scq+jbV6GFVABKuw3kX62OVfRtq9DB2G8i/&#xa;Wxyr6NtXoYVUAEq7DeRfrY5V9G2r0MP4rf8AlR9uzz5//wAZo/8A/kH9/h1V&#xa;wHZT2TvFYw3zf297OYFVEq2TvFYw3zf297OYFVAAAAAAAAAAAAAAAAAAAAAA&#xa;AAAAAAAAAAAAEquPxp8ec395e0bcFVEquPxp8ec395e0bcFVAAAAAAAAAAAB&#xa;KsN+EXO3OBD91aCKqJVhvwi525wIfurQQFVAAAAAAAAAAAAAAAAAAAAAAAAA&#xa;AAAAAAAABKtpbwdUjnAsT3qpYqolW0t4OqRzgWJ71UsBVQAAAAAAAAAAAAEq&#xa;uPxp8ec395e0bcFVEquPxp8ec395e0bcFVAAAAAAAAAAAAAAAAAAAAAAAAAA&#xa;AAAAAAAAAdVcdqgdVcB2U9k7xWMN839vezmBVRKtk7xWMN839vezmBVQAAAA&#xa;AAAAAAAAAAAAAAAAAAAAAAAAAAAAABKrj8afHnN/eXtG3BVRKrj8afHnN/eX&#xa;tG3BVQAAAAAAAAAAASrDfhFztzgQ/dWgiqiVYb8IuducCH7q0EBVQAAAAAAA&#xa;AAAAAAAAAAAAAAAAAAAAAAAAAASraW8HVI5wLE96qWKqJVtLeDqkc4Fie9VL&#xa;AVUAAAAAAAAAAAABKrj8afHnN/eXtG3BVRKrj8afHnN/eXtG3BVQAAAAAAAA&#xa;AAAAAAAAAAAAAAAAAAAAAAAAAAHVXHaoHVXAdlPZO8VjDfN/b3s5gVUSrZO8&#xa;VjDfN/b3s5gVUAAAAAAAAAAAABJ9obW4KNbOKGj1Xf8AccSlykkWutMY3ps8&#xa;lfMlcaK6xqfDekILumRGFYAcGbL2lspW7jyzsnX9mimVxq97GuStyIhUBjkK&#xa;E/TmOVblJTG3XnUJMuRebUo951aSRyfFIwtRyfnW7p0nHly35dtAlUC8cczW&#xa;pU+FRWKmbdVqT7TjLzUFTzCGS5BpxDaz5XQ913eSrtg5/wDd7g8jhjhiuZQs&#xa;e6Lfnt363KtG9c133bLttqpTCUx2+q65LTJKTpyxuk/CPUt7cNtwk7pKLfPm&#xa;cAAAAAAAAAAAAAAJVcfjT485v7y9o24KqJVcfjT485v7y9o24KqAAAAAAAAA&#xa;AACVYb8IuducCH7q0EVUSrDfhFztzgQ/dWggKqAAAAAAAAAAADhjlfJ9/wBM&#xa;yJPujHkepnKva9Y+MadPpjUB6WzApUGZLk9SoqDrUMpDk9UxjV1ehpj96tZI&#xa;QA5nAOCDmddpy4LXrctjIEK25VmWRdFxvKRTaVPdqkil1F1mMmRyDr8dhS22&#xa;9yQhlxW64lZINHky9UzFtBW5XUY9q2Yqcc6sVCxHkVt2hRW0wG64upNyorTW&#xa;m6tKVQW+RU5vL1WRLUvyhzYAcCb1zdkG2KrLuh2qs3jXsTsZDpsCsPw22G6k&#xa;UaDS5CXnm45JR8ib6mneTSklHGc0JJnw3WvZczNiO6ZcGtZbjX1bFrMWrc9x&#xa;1lylQoqmaZUpkuFLaPkEE2llCW25ray+UJDDhLWtKiMw5ggOB1X2k9o6vHSC&#xa;t6TVYbFctaq5EhP02n0MjRTXJ7iKWxIOqSY6CjtxEMOPqb1eNUgu2bIiM/dU&#xa;dqbaMrFzz6rSqI5TYlrotJuVTWH6AqjynanEhyZJSZkuaiT2xynGY6ohLQam&#xa;knq6ZqQQc6wAAAAAAAAABKtpbwdUjnAsT3qpYqolW0t4OqRzgWJ71UsBVQAA&#xa;AAAAAAAAAAEquPxp8ec395e0bcFVEquPxp8ec395e0bcFVAAAAAAAAAAAAAA&#xa;AAAAAAAAAAAAAAAAAAAAAdVcdqgdVcB2U9k7xWMN839vezmBVRKtk7xWMN83&#xa;9vezmBVQAAAAAAAAAAAfI/SaVKqMWryaZEenwEOtxZTjKVPMJc3eUShZlvJJ&#xa;W4neIjLXdLXuEPrABKcQbM2H8O2k1bdDsa3ZEx6koo1Xq66NGRLrEck7qkyl&#xa;JRq6Si75KjMj8oycHZ1wBTKY9RafhCw40CTHTEfitW7ES06yl4n0trSTeikk&#xa;8ROER66LLe7vEUMAGGasuzmCiExadGbKBUn6zEJEBoup6g/yvLS29E9o+51R&#xa;I33C0UrlnNTPfVrmQAAAAAAAAAAAAAAASq4/Gnx5zf3l7RtwVUSq4/Gnx5zf&#xa;3l7RtwVUAAAAAAAAAAAEqw34Rc7c4EP3VoIqolWG/CLnbnAh+6tBAVUAAAAA&#xa;AAAAAazXsYY3ui1X7GuOwbdqduyX1ynqTKpjLkRb63VPLdNpSdzfN1anDVpq&#xa;a1GrXUzMbMADWYWMsb02lJoVPx/bcanIpa6GmI1SmEslTVmZrh7hJ05BRmZm&#xa;1puGZnqQ13JmAccZSZp0a4LZo5sxahT5U1tdLYdTUo0MnyZhyCUnt2E9Uvbq&#xa;D1JO+rQi3j1pAANZo+MMbW/TKdRaFj+3KfT6RHkRKfFjUthtqIzI05dtpKUk&#xa;SEuaFvkWhL0Le1Gm3Ds141k4xr2JbAoNJx/QbrJbFdbt2jxYypsVxs23muCN&#xa;1KltnuE5oakFpu6aFpWAAaddOHMS3zBo9MvXGlsV+Jb278FM1OlMSkQiSSSI&#xa;micSe4WiUloXd3S17g9lXxJiy4Ltpl/V3G9s1C5aKlCadV5VKYdmRCSZmgm3&#xa;lJNaN0zM06HwMzMtNRtoAAAAAAAAAAAAlW0t4OqRzgWJ71UsVUSraW8HVI5w&#xa;LE96qWAqoAAAAAAAAAAAACVXH40+POb+8vaNuCqiVXH40+POb+8vaNuCqgAA&#xa;AAAgG2VGqVQsi16SzaTlapcu5mSq7i6JUq5FhR0xZJpck0ynKTInNKdJpsmt&#xa;SbJa21r4IHHHGeEq3km2Do2V8f3bNTbVk3ZAgx6lSp0Btqb8OSHKdyLSlGXK&#xa;JiLYNgkuOGhJ6JUZpMyD+hoDg7RLZyI/l+xMSVeJU/gjIdPtrJtzLkrWhyLL&#xa;o0RDU5h1tR7yTemNUM1JMiIzOTvce7R9oTC8LK+Vqm5c1n1StUiFjGopp+4m&#xa;R1MVWOURsmjkzJJykkRm33Vp1M06d0BybAfz8nWddlWnyHL0sm+puX6kmzHb&#xa;DuEqPUHGaPETEp5TSVKSjkYZtyk1FyU26tCnUrJJkreSkbdbWE7lolxWtkm2&#xa;rZrNKvmpZhvdidWJcKXITHocgq8cVb7JqSRwDcTT3UJ1Q2pa0KSolO7xhzVA&#xa;cENp6w80TLwt9GT6qzd1JRak6NCl0fGtXqcZNcXKMyNqHBqKVQ5fIcglqU86&#xa;pBGh0yU2ZmPbEsXJkXPdlVyuWlftUsmnJtmHfS1xXEFV7tbgrTHrHUiEuG5G&#xa;YUuOmS408prleSUZrKK4sBzaoNcp9y0eJXaV1T1JNbJ1nqmI7Fd3f1mnkpcQ&#xa;f2KSR/YPFEuKh3IzKkUGqMTm4M2RTpCmVbxNSWFm280f6yFpNJl85D+eUixb&#xa;5gRcX1Go2DdtWuOmWxRmotEqlr1R1HVLdRkLcXBqcVafgiahKyN45SOTca5E&#xa;jM0pVpkbgxyVBTLsaPheZGpkjI93VGfLkWNV6zB1W6ldMNMGGplMo3WXTJqS&#xa;tw2WFNKJRksyIg/oaMbSLiodffqcajVSPMdo006dUENK1ONJJtDhtL+ZW462&#xa;rT5lkP58wMM3jkbD9w16+7Fvefdls7P1JhUFU2HPZlt3TCcrRK5BBkSnJrbr&#xa;UbdUklLNLyDSZofI18mdl6zo1nXfmdL9ly6HU6zeLNXXJcpbsdqfGepsU0ON&#xa;vGkm3tJBTN5KFGaFqVvkk1FqF/GNrlxUO2mIsmvVSPBamzY9OjreVuk5JfcJ&#xa;tlovnUtakpIvKZkP5z4QhTixbbFyYaxJfcy5msbXGV5zHY9QgfDanI+sCOxN&#xa;WRJkuqfJCmFR1OKZaJSU7hnuj56PjaXMVWYVZxdV6paEWt4/uOLGp+NK1TIW&#xa;jFUkNVh1iFLN+S66TDjJPKPR15OqybNJGsw/ozal4W7e9Ok1a2Kh1ZFiVKdS&#xa;XnORW3uy4clyNJb0WkjPceZcTvEW6e7qkzIyM8yOGGPsJTLTvizMn0yxa7Cu&#xa;ipZrvQq5ONiSSut+QquqZN1J9qiGtaYLiDMibNxxtaT3nCNXM8AAAAB1Vx2q&#xa;B1VwHZT2TvFYw3zf297OYFVEq2TvFYw3zf297OYFVAAAAAAABP8AOuTqhiDH&#xa;Em9qTbcevTk1Ok0qNAkVA4LTrs6oR4SDW+TTpoSlUglmZNqMySZacdRqFC2l&#xa;UUqvXda2a7epVn1C0KZTKvKfpNacrcJ1idIejx20uFGZdKQp1ndJk2d5XKI3&#xa;N/UbFtG4ok5sxXIx1HbpbqJtZocyWzU944z8SJVYsqS0siQve32WHEEk06Gp&#xa;REZkRmZa7kTZ8hUnFUqzNnC17ZsiTJq1PqEyPSiKhlUGGJCHHmOrIrK3Yzi2&#xa;0qQl9CFLRr2pp74g+qbtYYmZqtjU+nTKpUGb5qk6kMvtUmWg4EiIwt11Eppb&#xa;ROMKI0kk0OJSpJK3zIkJUovynbF2cHbfgXREyOmZTao4+3Cch0mdIW+lhttx&#xa;95LbbKlmw0l5vlHt3kkKM0qUSiMilNjbL2Y7Vdp0pxq09Yd+1O5DYXc9SnqK&#xa;BUaIqnupOXKjqfefZWveJTnB8iMzUyZ7pbDSMFZlxjSMaz8cwLIrVdtzGbGP&#xa;a3HqtTkQ4iHG0R1IlxnERXVOIJ5p3fbU2g3Emg9UmnQBSK1tR4Et+uxbcqeR&#xa;oaZsxEB1s2I0h9hLU3TqR1x9ttTTTTu8kkOLUlBmemuvAfJUtpzHdnvVGPlC&#xa;Wq1XIlVnQ2CUxJlpXCjuJb+EHlNMmmLHUpZEbjpk2k+G+Ym1M2RLmtvFN540&#xa;olco751m1bWt2mS5LjqVGqlRybccf0bVuEpRGpJJ3tNe4kZ3aZwhk/Jdywq5&#xa;jNmhwai3Q5FKi3AdxT6RUKQ+te8TikR2nWqlFPgaoj6UpNSO+0Wo0hUMjZPP&#xa;HVxWHTptC6ppN5V7refqZSdz4OkuR3XIpqb3D5RLrrRM67yd1TiO+10Gp07a&#xa;QgT8kVa0HaPToFCpVyv2wmuTaspvquRGpCqjMU01yBp3WNCaUa3Ul2rytdWy&#xa;QvZc241qOUcRViyKbUo8avqYZmUaoPINDcarRXESIchRJIzSlMhlpSt0jPd1&#xa;ItRFrg2ProufDtl43qFy0pmptIuaXeFTZN0+qKlW6TUo8p+ORo1cIpdRNRE4&#xa;aPkk6d0iSArVtbTmDLuJv4Cvxp1T02DAaQ9BlR1uuTVqbiLQl1tJqZeWhSW3&#xa;iI2lKLQlmYzds5pxfeUqBCte74tRfqc6pU6Khltw+UkU9W7MTxTwJtWhGo9E&#xa;nvJ3TPeLXjZQtkbKEm0bqOss0CkXYm36dTrXlu3tX7jSVSgS0TY8hxyoH/ik&#xa;bqliOZMMtKUkuU7dWpJG47OGybV8HZGl3JPr8CoUaPbkOBSWG1LU+1U3o0Jq&#xa;sSV7yCSRSF0uG6RkZma1vmZJ17YOTAAAAAAAAAAJVcfjT485v7y9o24KqJVc&#xa;fjT485v7y9o24KqAAAAAAAAAAACVYb8IuducCH7q0EVUSrDfhFztzgQ/dWgg&#xa;KqAAAAAAAAAAAAAAAAAAAAAAAAAAAAAAAAACVbS3g6pHOBYnvVSxVRKtpbwd&#xa;UjnAsT3qpYCqgAAAAAAAAAAAAJVcfjT485v7y9o24KqJVcfjT485v7y9o24K&#xa;qAAAAAAADCQbLtWm3TU72hUKK1XqyyzHnVHd1feaaLRtvePiSC7u6Wha6npq&#xa;eozYAAAAAAAAAAAAAAAMbbdt0Kz6DAte2aYzTqVTGExocRktG2WklolKS+Yh&#xa;kgAAAAAAAAAdVcdqgdVcB2U9k7xWMN839vezmBVRKtk7xWMN839vezmBVQAA&#xa;AAAAAAGl39l6x8cyIlKrdQkS67UkmunUGlxlzapNIj3TU1GaI1m2RmRKdURN&#xa;o11WtJcRrCZG0VkEiciRqPiujucS6tQis11aPtQhZQ4q+5+fLLgfAteAVsaF&#xa;cufcHWfLOnXPl6zqdO13Shv1qOUlR/Mlnf31H9hJGELZqx9V/lMkVG5ciPK7&#xa;8rqq7kmIv5/+T2+Tgp18u7HLXudwiIb/AG1ZdnWXEKBZ1p0ahRSLdJmmQGor&#xa;enzbraSIBofxncQO8adOuiqp8iqVZdanpP7lR4iyP9wfGXxsXFyh5OaT+k7i&#xa;y50J/wD3Kp5EKqACU/GlwKxxrGQGaCku6qvwJVJSn7zltNkX7xvNrX5Y19Rj&#xa;mWTedCuGORbxu0qosy0EXz7zalEM6NFurBeGr2klPunF9sz5yT3kT1U1pMxp&#xa;X6SJCSJ1B/alRGA3oBJlYTue2CN3E2aLqoe5+TptwPKuOmH8xKTLX1YlJeRL&#xa;UtsiLhp3NPW5l2/MfaN5sxw8zTkcFXRanK1OnJLXv5EbdKXFLjqZkh5pBEZr&#xa;eSQCugMfQLhoN10aJcdr1qDV6VUGyeiToMhD7D7Z9xSHEGaVF9pGMgAAAAAA&#xa;ACVXH40+POb+8vaNuCqiVXH40+POb+8vaNuCqgAAAAAAAAAAAlWG/CLnbnAh&#xa;+6tBFVEqw34Rc7c4EP3VoICqgAAAAAAAAAAJ/e+bbPs6tdZ8NipXTdym0uot&#xa;u3o5S56UKIzQt7VSWojatD0dkuNNmfAlGfAYUqXtE36fKVa4qPjClOf+yUZl&#xa;ur1k0/OqXIR1IwrTXVCY75amWjh6cQrDjjbTanXVpQhBGpSlHoSSLumZ+QhO&#xa;61tHYCt+aqmVTMlnoqCe7BZq7D8r/UNqU5/sj4GtmXEs1xMm+aXUb+lEZKN2&#xa;8ak/V294u4aIz6jjNceOjTSC146aii0S3qBbUJNOtyh0+lRE96xCjIYbL7ko&#xa;IiATr4zeJ3OME70qSfIqm2FXpqT+5TENZGHxmMaJ4vUfJUdP6UjF9zMpL/pL&#xa;gEQqoAJUnal2fm1EirZQpNCNR6F8Pk7SOPzf44hvQxQbfum2bthFUrVuKl1m&#xa;GemkinzG5DfHudsgzIZJaEuJNC0kpKi0MjLUjL5hPrh2ecI3PNOrVLGFAaqn&#xa;HSqQIpQagn+jKj7jyf3LIBQwEmVibJNpFy2LM2VnkkcU0i82/h6Goi/NKQpT&#xa;c5KjLhvrkOkXA9xWhkr1nnWpWMtMTPdjv2cyR7vXJCfOo28r9ZyUlCXIZcNT&#xa;OU002WpETizAV0B6osqLOiszoMlqRHkNpdZeaWS0OIUWqVJUXAyMjIyMuBkP&#xa;aAAAAAlW0t4OqRzgWJ71UsVUSraW8HVI5wLE96qWAqoAAAAAAAAAAAACVXH4&#xa;0+POb+8vaNuCqiVXH40+POb+8vaNuCqgAAAAAAAAAAAAAAAAAAAAAAAAAAAA&#xa;AAAAAAOquO1QOquA7Keyd4rGG+b+3vZzAqolWyd4rGG+b+3vZzAqoAAAACOz&#xa;sh3Xl6q1C0MI1BNMo9NkLhVi+nI6X2W30Ho5FpjayNEl9J6pW8rVhpRGnR5a&#xa;VNp85Kn1XKt3vYHtSqzaZTokdmbe1YhrU26xDd15Kmx3S4okSCSo1rSZKaY7&#xa;Yt1brSiqdCoVGtijQrdt2lxabS6awiLDhxWibaYaQWiUISXAiIiItCAYCwMW&#xa;2ZjZiV1t05aqhUlE7U6tNeVJqNSdItOUkSHDNbh/MRnupLglKUkRFtoAAAAA&#xa;AAAAAAAAAAJZcWGH6TWJV84Uq7Fn3LKdORUIhtGujVxWnezIyTIkuH3OqWd1&#xa;4uG8bqS5M8vjXLEG/JVStmrUeTbV40DcKsW/NWSnWEr13JDLhESZMVzQ9x9H&#xa;A9DSokLStCd8E+yzi52+Gafc1qVNFCvq2lKkUCs7hmlClacpEkpLi7EeJJJd&#xa;b/orTo4hCkhQQGo4uyHFyXaiK6mmv0qpRJL1NrFKkHq9TagwrcfjqPhvESuK&#xa;VkWi21IWntVkNuAAAAEquPxp8ec395e0bcFVEquPxp8ec395e0bcFVAAAAAA&#xa;AAAAABKsN+EXO3OBD91aCKqJVhvwi525wIfurQQFVAAAAAAHrkSI8SO7KlPt&#xa;ssMoU4444okoQgi1NSjPgREXEzMRiNdN5bQiVdjqrzrSx2ThoVc7TRJqNwII&#xa;9FFTSWRlHjHxLqxRGpwuLKSI0vn+bkjfGHvWoWGp10scWdNTHuRKdUpuOqJJ&#xa;K/g3e/OiMbyTkER6OOGTJ9qh5CrU002y2hlltLbbaSShCS0JJFwIiIu4QDA2&#xa;Rj+zccUf4Bsm341LiKcU87ye8t2Q8rvnXnVmbjzivK44pSj8pmNhAAAAAAAA&#xa;AAAAAflaEOoU24hK0LI0qSotSMj7pGQ/QAJDOxJXcbS3bn2f3o9PZUtcioWV&#xa;JcNFHqajPVSo56H8HSD46LaLkVH+UaMz5RO341yfbuT6TJm0hqZAqNLkHBrF&#xa;GqLXIz6VLIiNTEhvU9D0MlJWk1IcQaVoUpKiUe3iW5Vx7WUVmNmTGDJN3tQm&#xa;OSkQ0rJtq5KakzUunSD7m9xUph0+LTp93k1upUFSAYKxr0oORLRpV7Wy+67T&#xa;avHTIZ5Zs23W9eCm3EHxbcQolIWg+KVJUk+JGM6ACVbS3g6pHOBYnvVSxVRK&#xa;tpbwdUjnAsT3qpYCqgAAAAAAAAAAAAJVcfjT485v7y9o24KqJVcfjT485v7y&#xa;9o24KqAAAAAAAAACTVfKNz33V5VnYHjQJnUT64dYu6ck3KVSXkmZLZZQk0nP&#xa;lJMtDbQpLbZ8HHEqLkzDfLyvqzceUdVwXzc9NodPJaWifnSEtJccVwS2jU9V&#xa;rUfBKE6qUfAiMxoSctZHvQ93EuHZ64S/yddvF9VDhLL9JuMbbk5zhxIlsNJV&#xa;qWi+6ZZezMIWla9aTelbemXdeZoUldyV1SZEtslab6IySImobR6F8lHQ2g9C&#xa;MyUfE6GAlBY4zXcnyl658fpLa+KoVl0KNAb0/QU/N6reV9qkG0Z+Qk9wefi0&#xa;Y1l9vcs69LlcPvjrN51aS0r/AKg5BMJ/6LZCrAAlXxUtmZfGXgOwpyvKqfQI&#xa;0tR/ep1CjMPio7MSeMbZ7x1EV+lEtqHHUX3KbbSZCqgAlPxY8Sxu2t+Nc1uL&#xa;LvVUG7arTkp/6tiSltRfYpJl9g8HinKtv/KWLtCV1xKeKIV20qJWIpfZvtJj&#xa;Sz/6Ug/sFXABJlZDzRZenZExCmvQE9/V7HmHMUhP6btPkE2+n+iwqSriX26b&#xa;jYuT7ByXFkSbIuiHU1Qlk1NilvNS4ThlqTciO4SXo69OO44hKtPINoGkX7hy&#xa;xchy49bqtPep9xQEGiBcVJfVCqsMjMjNLclvRZtmZFvNL3ml6aLQouADdwEd&#xa;LIF84beTCzbIYrNp6khm/IsdLBRTM9CTVYyO1jl3C6qa+QM+/THLTWvtOtPt&#xa;IfYdQ424kloWhRGlSTLUjIy7pGA/YAAAOquO1QOquA7Keyd4rGG+b+3vZzAq&#xa;olWyd4rGG+b+3vZzAqoAMJe120qwrNrt8V1Zop1vU2TVJZl3eRYaU4vT7dEn&#xa;oM2JTtOkT+JF0lfFmt3JbFEkF5FMTa7Biukf2G28oj+wwGVwXZ9VtLHsR+6E&#xa;F11XG6u4blX89TlaLdbI/wBBotxhHc0bYbLQtBQQAAAcadrfJWXcdXnjZ3DV&#xa;qVG7K5UI9xpZt9id1PFmvNwULbckkakpWho95RJ741aJSZGrUsNj7JN6ybex&#xa;ta+Fr+YvGv5NptWvCp3Ve/VT8dhMRcVuTGZgMvI6nUT8ttpMZtaUME04aiWv&#xa;U1ByvAcLqztkZxl2vUr1s+xLMRBtawabeVbhVB+Up6RIdqFQiPxYrqDSkkK+&#xa;D1LbeWk9CMtUqJeqPou7Le0jNyJamNyl2hCvKj5EZpq3oKprVGmwZdr1CWSZ&#xa;TBu8o9yK0qXub5JcWwyouTM+1DmSA4w2JtR39WV3VR7tty34lUsy27jm1B2G&#xa;p5USRUKVUXYhrZNat4o60tks0q7dBmpJq1SY+2xs85jyPW3apblEsyNbFuSb&#xa;epteYqDrzM6VIqEKHLfeium4TTSGW57RIbcStTykqIlJM06hyRAcLcK7QWab&#xa;NxvZ87KEi06jR65Y9frtNny6hKRMaephNrSqoy3TWlSHm3dVKS2RtaafKd0f&#xa;MraZyRfbkW2KnJVTZlJvjHj5VGlUeq0BE+n1WqutOxjjz9H3GtIriDc4NvJX&#xa;3paGQDm2AiedsiXTYt620m0Ledr1Scte6qlDpaak7GROlxGIq2GFJJRNLNa1&#xa;7pKcSo0anuabytZFA2hM1X1LsWJTbptanzOyPCo1ailblUpss4b1NlSOppUC&#xa;atL0dRGysiWSlocNLa0mkkqQYcyQAAEkqbfY92hKTV43ydJynFcpM9HcSVbg&#xa;sKfiOl+s7CbltqPhqUSOXHThWxKdowupbYtOvN8JFKyBaZsq8pdVViNBc0+9&#xa;qY6X3GYqwAAAAlVx+NPjzm/vL2jbgqolVx+NPjzm/vL2jbgqoAAAAAAAAAAA&#xa;JVhvwi525wIfurQRVRKsN+EXO3OBD91aCAqoAAANIzVetSsDGdauGgstv1xa&#xa;WabRGXO8eqkt5EaGhX6pyHmiP7NRu4lOcCKZc+HaC7xj1TIDZvJPuH1LR6nO&#xa;b1+52G0f3kQDcscWNTca2PR7IpTzj7NKjk25Jd/Ky31Ga3pDh+Vx11Tjiz8q&#xa;lqMbIAAADh9tW5mzJjDL8uNjKl1ioQzx6U+pyGTKRGt6Kmp7sqrFCUtJSpDT&#xa;JmaGi4q3T1M0pNJ5qoZPv+zIb1lYJrlHumkWRYMa+6ncN7VOXUZNfZlrlmw2&#xa;w+lxPJ8oUJ9ZvGS2myW2lDW6WhBynAcQqvtS57qlUqVUsG0LJTbrF02zasNi&#xa;sHLRPU9WqbT5CHXTQrcSmO7UEGtJJM3EEaS3FJ3lfDBy1tK3xl+1rbtadZsK&#xa;5abT76o9ZbldXfAMpdPqVJQzMTEQ8TnKGlxKEkpxRtE+8ZGstUqDmWA4p2tt&#xa;h3TdGJLsyV1qUmnP0KjWzUI8R1xbiDeqRETyFLJRcoglmfJqTu7xGkz11C8c&#xa;1ZpubH2SLyo7Fs0qy4pXhbkA2pT8avw5FMjzWkzkum4SFKXJiK3WUIS42g0u&#xa;b6tFEQcrAHEuBtF5lx/bFVpuTkWIVVjWfb1w0eW0ueplJzpZw1x5RETj0t9K&#xa;iSpPIISp9StwkJMyMfJYm0BfmTsm41plZelUt2l5CrttVZuLT59GZq7Ldrqn&#xa;suO0+YfLtERyGzJt7eMlNksj4loHL8Bx5zRlu+rAyJc7Ni2tJuCfT7No09iG&#xa;hyXJSRP1d6O+8mC0sifW0yS3dxpJPO8mTZK73TV8eZtyzkfKeK22rxtN2i1C&#xa;PdLFejU2lTo3VTsJcQkGuPLUl+E8lL6PkXSUaDNzU1ktBpDlcAAAklmt9j7O&#xa;ly2A18nRr2hLvWkN9xLU5DqGKq2n9VS3oUj7XJL56fPWxKcrl1FlvClWa4PS&#xa;rkqlEWZd02HqFUJSi+7lKeyf3kQqwAJVtLeDqkc4Fie9VLFVEq2lvB1SOcCx&#xa;PeqlgKqAAAAAAAAAAAAAlVx+NPjzm/vL2jbgqolVx+NPjzm/vL2jbgqoAAAA&#xa;AA0bM97VOxbBlz7cZafuOpvx6LQGHS1Q5U5bqWI5rL/NoWsnF/M22s/IA1K9&#xa;p1fzRd03Etn1WTS7RoyiavWuwnlNyHnVJJRUeG6ni24pCkqkPJPeaQtKEGTj&#xa;hqaqtvW7QrSocG2bYpESlUmmMIiw4URpLTLDSS0ShCU8CIiGKxtYNIxlZdNs&#xa;2jrW8iEhS5Mt0vlp0txRuSJbx+V155bjqz8qlmNmAAAAAAAAAAAAAAAAAB63&#xa;2GJTDkWUy28y8g23G3EkpK0mWhpMj4GRlw0EQp8OTsz3DDpMdw1YfrklESKh&#xa;xRn1nz3VklplJn3Kc8tRIQR8I7ikpL5JZEzcxjrjt2h3fb9StW5qWxUqRV4r&#xa;sKdDfTvNvsOJNK0KL5jSZkAyICY4IrdZTRqxjS66g9Or+Pqj8CPzHz1dnwzb&#xa;Q9BlqPyqcjONEs/8828Xk0FOAB1Vx2qB1VwHZT2TvFYw3zf297OYFVEq2TvF&#xa;Yw3zf297OYFVABMNpeBOl4QuefTIy5MygNxrljMNlqt52mSWp6EJLyqUqKRF&#xa;9pkKePytCHUKbcQlaFkaVJUWpGR90jIB6KbUYNYp0WrUySiTDmsokR3mz1S4&#xa;0tJKSovsMjI/3j6RIMHS1WJUKps8Vda0vWk2Uu2XFkeky23FmUYkqPgpUU9Y&#xa;q0lxSTbCz05ZIr4DC1SzrbrVyUO7qnTuWq1uFKKmSOWcTyHVCCQ92qVElW8l&#xa;JF2xHppw0MaBV9lrCtWOQ61b9VpMiRWpVwnJotw1GmvNTpSEolLacjPoUyl4&#xa;klyjbZpQtXbqSa+2FZABOlbPWHVUSoW2my2WqZVLbg2jKjMy5DaF0iGp5UaM&#xa;W64W5uHJfPfTos9/tlHoWnqvbZzxFkKpv1y5benHVH6lGrHV8GtToMhqdHiO&#xa;RGX23I7yFNrQw64kt3QtT3jI1ERlSgARyrbIuAa1QqRbU2zpqKfRoM2mtNxq&#xa;/UY6pUSY7ystmW40+lcxDzuriyfU5vLM1Hqaj1yvxa8NldNLvBNryUTqQ3T2&#xa;47SavNKG4qCkkwnXopO8hIeZIiJt11C1p0T22qU6U4AE6l7POHKhbNKs6dZb&#xa;UijUSjz6DBiOy5C0NwJqEoksmZuar30oSW8ozUnTVJkfEay7sdYFlIm9X0S5&#xa;Zr9SKB1ZMk3nWXJj64TxvQ3VSDlcryjK1K5NZKJSEmaSMk8BawASuNsw4Yap&#xa;7lLm2/V6xHdi1CCoq3c1Uqqup5zTbUpslS5DiiStDLZaEfamRqTuqMzPzTtm&#xa;fEdOhNxiplclyWqrCrSanOuWpSaj1XESpEdRzHH1P7iEOOIJvf3DS4sjSZLV&#xa;rUwAAAAEozqr4YquNLBZ7d6uXpAqDqC/MjUsl1FTp/qk7Fjo1/SeR84q4j+M&#xa;HyyrkWr5vLeXb9PjvWvZylJMifjk8lVQnpI/zH32Wm21FwU1EQstUukLAAAA&#xa;AJVcfjT485v7y9o24KqJVcfjT485v7y9o24KqAAAAAAAAAAACVYb8IuducCH&#xa;7q0EVUSrDfhFztzgQ/dWggKqAAACUbQyvgilWXfy+DNnXpSqhJX/AJqNJNyn&#xa;Pun+qhqoOLUf6KFCrjE3ba1Fve1qxZtxxSk0quQX6dNa1032XUGhZEfkPRR6&#xa;H5DAZYBNcHXhWKtQ5thXtKU7elivIpFbcWk0nOTu6xagjXvkSWSS5qXBLnLN&#xa;91tQpQDCLsu2XLvVfrlLJVdXS/gVUpTqzI4XK8ryRt72535me9u73k104CZS&#xa;9j3Z/lUqnUJq0qnBptMiyac3DgXHUorLsCQ8p52C8luQknohuLUZR17zSSUa&#xa;UpSkzSdoABpb+G8bSZM+W7bSeUqVfp90STTKfSS6nBajtRXySSyJJIREjluJ&#xa;IkHyfbJMzVrrNz7LGErtnlVqnblVjVApNTllMplx1Knvk5UVtKm6LjyEK3XT&#xa;YbJSdd0kkaSIiUojrQAI/cGyTgC5n4blTsd5DEKnU+kogwqzPhwnI0BW9CQ7&#xa;GYeQ06bB/k1LSpSfIfAtPum7MmFajcdauifakl+XcCZvVrK6xO6jJyZHVHlv&#xa;sxeW5Bh91lakLeaQlwyUrttVKM6kACe3XgLFN6NLRX7bdccVTINJbkMVKVHf&#xa;YjwpPVMQ2XGnEqacaf0cS6gycIyLttOA1dex1gJaD/5AuNDyqp8NnKavKtNS&#xa;vhA4vUq5XVCJZO8q4x2jit7VwiLf3jLUWoAEqd2YMNSKQ/R5VDrMpMiHHgnM&#xa;l3NVJM5ttiYqYwpuW7IU+hxuQs3EOJWS0noRGSSIiyFB2fsW23MoVTpVIqSa&#xa;jbs6ZUotQdrc56W9JloSiSuS8t41yuUS23vJeNafk29CLcTpRQAAAfLVKnTq&#xa;JTJdZq81mHAgMOSpUl5ZIbZZQk1LWpR8CSSSMzPyEQCZXyr4f2gMZW0x25W5&#xa;FrN2yjLuNGUcqcwR/avq+SafsZX8wq4lGDYc+5nq9nKvQpESZfao5UmLJbU2&#xa;9CoEcl9QNLQrtkOOG6/KWg+KVSjQfFAq4AJVtLeDqkc4Fie9VLFVEq2lvB1S&#xa;OcCxPeqlgKqAAAAAAAAAAAAAlVx+NPjzm/vL2jbgqolVx+NPjzm/vL2jbgqo&#xa;AAAACUZDT8NZ4xNbD3bMQGa/dpoPuKciMMQUGZeXT4XUZfMZEfdIhVxKb5Mq&#xa;XtEYrrj3BqoUm5rZQZ9w330wZyU/fydJeP7kmAqwAAAAAA4jUbaivO4MlXFa&#xa;D+b8O2uul3pNtqHQajbFQk1J9lmTyTRm8mpNo5RwtNDJoiIz7h9wb1Uds/H0&#xa;FyY3HsHIlRKNeEiw46oVDS4VQrTPVvKMRtXS5VJdQL1c4ITyre8pOjnJ/Tbu&#xa;Fs62PW7icsjN9pRaDcFzT7jOBULEelSWTlvm64z1QmptpVproSuSL59PIMlS&#xa;dnf4L61v+d/K9bWSa9kL/wA37vVHwl8K/wCJ/lD3OT+FfyvHe5DvE7/ah8be&#xa;11jlVXdiPW7dsejHOqNIhXG7TmypdRqUFp9yTDjucrvqcT1LJSSlIS0tbK0o&#xa;Woy46pkzbQjUrBrWUMaWLVplWrEJ6rUWnV+McPlaSyhtx6qOoSo1pikl1CUG&#xa;e6pxx1pJaEvfL7FbKFxyVptSfkyA5j+lVqt3FQqOigKTNizai3MSSHpXVJoe&#xa;YYXUJDjaCaQozJolL0R2315J2LsdZMxuzatWnTo9yxbOiWczcUaZNYLqeOk9&#xa;xTkNmShp1O+txe4sz77Q1GREA9eQtoy+rXuG+KvQrWocqyMZVak0W4FyJDxV&#xa;GW9LREeecjEkuTQiOzOYUZL1NxSXE9poSjz7e0DLq20fTMOW7Q2ZFvHAqyah&#xa;XFqV21UhdSqXEjkR6KJpMpBOrPUt9XJloptwiwVa2Uqg7cNUhWtkf4KsG6J1&#xa;FqVx0KVTnJ86U9TG47SEsz3ZGraHmocVD3KNurVyajJaTcUZZGn7H2Lbfyva&#xa;+ULT+FKT1uKq0hdNTWKi8xJlTnGnVOklck22iJaHVKbJs0uG7qou0IBdQAAA&#xa;AABKDT8B7UzSWe1TeNhPOvpLuKXSag0lKtPn3ayZGfd0JJeQhVxKZh/Cu1RS&#xa;Es8etfH9RORp+b8KVGHyWv3/AAQ9p/RMVYAHVXHaoHVXAdlPZO8VjDfN/b3s&#xa;5gVUSrZO8VjDfN/b3s5gVUAAAAaJljG8q/KbBqVtVoqDeFuPnOt6sclyhR3z&#xa;LRbLyNSN2M8n5N1vUtUmSkmlaELT6cW5ZZvpydatyUhdt3zQUpKt2++5vKbI&#xa;+CZMZzQikxHDI+TeSWndSskOJWhNBGn5Dxfb2RY8R6a/OpNbpSlO0mvUp0mK&#xa;jTXFFoo2nTIyNKi0JbSyU04RES0KLgA3ABHuyXkPFRlCzVbjtZojfat3nbUF&#xa;x5lKNSIjnwEb78ZXlU40TrBERqUpku1KmWzdVsXrRY9x2fcNNrdKlp3mJtPl&#xa;IkMOl+qtBmk/7QGVAAAAAAAAAAABo995nx/j2czQqtVXJ1xTE78O3qTHXOqs&#xa;otSLeRFaI1kjUy1dUSW066qWkuIDeBC7iuGpbRdVl47x9PkRMfwn1RbrumMo&#xa;0fCZpPRylU5wu+1PVEiSg91Cd5pszdNSmciu0Mm5oJK8oG7ZVnudt1p02cS6&#xa;jUUHwNupzGj3UNn5Y8VRkeui33EmbYrVMplNotPjUij0+NAgw2ksRosZpLTT&#xa;LaS0ShCEkRJSRERERFoQDzT6fBpMCNS6XDZiQ4bKI8eOw2SG2WkJJKUISXBK&#xa;SIiIiLgREPoAAAAABKrj8afHnN/eXtG3BVRKrj8afHnN/eXtG3BVQAAAAAAA&#xa;AAAASrDfhFztzgQ/dWgiqiVYb8IuducCH7q0EBVQAAAAABNcrY/uSoVGnZNx&#xa;hJjRL4t5tTLTUlRoiVuAo95ymylERmlCjLeadIjNl3RREpKnELzOMso29lCk&#xa;SJlMZl06qUt7qOtUSoNk1PpMsi1Nl9vU9PnStJmhxJktClJMjPcRoeQMTU+8&#xa;KjGu2g1ubal409vkodfpqU8qprXe6mlNqLclRjVxNpwj0MzUhTa9FkG+AI+W&#xa;a67jlRU/aEtpFBYRwTd9JQ5It58uJ7zyj1dpx6Fx6pLkiMyJL7hir02p02sw&#xa;GKrSKhGnQpSCcYkxnUutOoPuKStJmSi+0jAfSAAAAAAAAAAACdXlnWyrXrLl&#xa;nUZM677wSkjK27daKXNRrrunIPeJqGg9DInJLjSNS0JRnwAUCVKiwYr02bJa&#xa;jx47anXnnVkhDaElqpSlHwIiIjMzPuCHMPzdp6sRZTLT8XD1KkpkIU82aF3n&#xa;JbVq2ZJUWpUxCyJRGZf4ypKTL5AtXswzjG88pS2axneVDaozKyei2NSnlO04&#xa;zIyUhVSeUlJz3EmRfJElEdJlxQ6ZJcFcQhLaSQhJJSktCIi0Ii+YB+gAAASr&#xa;aW8HVI5wLE96qWKqJVtLeDqkc4Fie9VLAVUAAAAAAAAAAAABKrj8afHnN/eX&#xa;tG3BVRKrj8afHnN/eXtG3BVQAAAAE7zta1buGxk1a0YvVNzWlUI1y0RjXQ5E&#xa;mKo1Kja+Tqhk345n5CfMxRAAYazrtod+WrSrytuV1RTKzEbmRlmW6rcWnXdU&#xa;nupWk9UqSfFKiMj4kYzIh9XlK2bbrmXEcXdxRc81ybV1tlwtaqvL1cmGRdyD&#xa;IWZqePuMvKU6faOuKbtrTrUhpD7DqHG3EktC0KI0qSZakZGXdIyAfsAAAAAA&#xa;AAAAAAAAAAB6pUqLBivTZslqPHjtqdeedWSENoSWqlKUfAiIiMzM+BEPaIbc&#xa;lS+MbccvGdvpJ/GlIfVHvGrJP5KsyG1caNGV+e2Si0luF2uhHHIzUt3kwzeB&#xa;WZNyt3Jmuox3WHMhTW5NLaeQaHGKHGRyVPSaT4pNxPKyjSfFJzFF5NBVx+UI&#xa;Q2hLbaEoQgiSlKS0IiLuERD9AA6q47VA6q4Dsp7J3isYb5v7e9nMCqiVbJ3i&#xa;sYb5v7e9nMCqgAAAAAAACcXJgLHlcrL91UiPULSuSSrferVsTV02VIX+lIJv&#xa;5KX90ht0u5w4EKOACTlb+0lavCh3/ad9xU96xc1NXSpyv6c2CSmT1/VhJ0+3&#xa;uF+uytlikdpdOzbcj2nfSLardMqTCft0feivmX3Mmf2CrAAlXxibej8KvjbK&#xa;tPUXdT1h1SZp++Iy8R/uMx8kLaqxXU5M+FSaTkqbKpcgok5hnGNyGuK+bTbx&#xa;NO6wSJtZtPNOElRke44hXcURnYBKsN+EXO3OBD91aCA8dnx2Zwt7CGVauo+9&#xa;T1vop2v76g9HIv3mQ8deW0RX+0t/C1DtttX/ALRdVzoU82XzlGgNPocP7OqE&#xa;F9oq4AJMrE2S7tIyyfnGqqir/KUqzYnwBGUR/mqkE49O1IuG83Ja17u6XAi3&#xa;Sx8bWHjaE9Asa1KfR0Sl8pKcjtfLSnP84+8erjy+PfuKUr7RsoAAAAAAAAAA&#xa;AJVcfjT485v7y9o24KqJVcfjT485v7y9o24KqAAAAAAAAAAACVYb8IuducCH&#xa;7q0EVUSrDfhFztzgQ/dWggKqAAAAAAAAADwZEZGRkRkfAyMS+o7O1js1B+uY&#xa;9n1rHVXkLN12TaksojDzh8TW9BWlcJ9Zn3VuMKV3ePE9aiACUFB2m7W7WFWr&#xa;Dv8Aio71FSYkW/N3f1n2ClMuK+0mGi8mhd0eSy/kaldpdOzbezenfSaJPpdS&#xa;j/uLqpuQf+oFWABKvjGWqxwqlgZVhKLup7HdZlafvjR3SP8AcY+SmbVOLq7G&#xa;XLt6jZKqrTch+IpcbGdxbiX2HVsvNGtUIkktt1txtaTPVK0KSehkZCwCVbNP&#xa;g6q/OBffvVVAHjs7VSd2ttYCynV1H3u9SotNT+86hJj6F/f9g8Hcm0ncXaUb&#xa;GVoWiwr/ANpuCvuT5KP/AMpDaJtX/ay/+oq4AJMrCd0XWWuXMy3HXmFcV0mg&#xa;l1vUxXzkZRlnMWk+4aHJa0GXA0mRnrv9pWXaNhUdu3rJtmmUKmtqNaYtPioY&#xa;bNZ91Zkki3lH5VHqZnxMzGaAAAAAAAAASraW8HVI5wLE96qWKqJVtLeDqkc4&#xa;Fie9VLAVUAAAAAAAAAAAABKrj8afHnN/eXtG3BVRKrj8afHnN/eXtG3BVQAA&#xa;AAAAAet9hiUw5GksoeZeQbbjbiSUlaTLQ0mR8DIy4aCONWXeuB9F4jpSrksJ&#xa;KjW/ZqnyRMpSe6Z0h1wyQbX/ANzdUlJf+qcbIiaOzgA1SwcoWRkuLJdtOspe&#xa;lU9wmalTZDao8+mvGWvJSozhJdYXp5FpLUuJakZGNrGlX5h2wciTI1ZrlJdj&#xa;V6noNuBXqXJcg1SGkz1NLcpk0uEgzIjNszNtWmikqLgNaTR9oqxD3aHctAyV&#xa;Sm+8jXAn4Iq6U/8A4yM2uO+emmhHFa1Mj3nOOpBWgEoLaAYonyeSMU5CtFae&#xa;C3lUNdXh/wBLqimHJQhH6zvJ/aST4DJUXaMwFcD/AFHSszWY5MLgqG5Wo7Up&#xa;B/MplaicT+9JAKKA+OBWaPVUE7TKrDmIPiSmH0uEf70mY9kuo0+noN2fOjxk&#xa;FxNTzqUEX7zMB9ADQa9tAYKtdfJXDmSyae8Z7qWH69FS6s/mS3v7yj+wiMxh&#xa;j2i7bq3yePLFv29nT4IOl269FirPybs2f1PFUX2k6egCrjAXrftm45oqrhvi&#xa;44NGgE4llDklzQ3nVHohppBds64o+CW0EalHwIjMaKo9pK+NEEm2MY01ffLJ&#xa;Z16sKT9haNxIy/tPqpPDuceGYs3B1jWjW03hKTULmuwkKbO47hlHOqCEK03k&#xa;MqURNxUK0LVuOhps9NTTrxAa08xkfPBKiToNWx/jt9OjrTqlRbiraPKhRJPW&#xa;mx1eXj1SsuH+L8d6q29b1CtKhwbZtikRKVSaYwiLDhRGUtMsNJLRKEITwIiI&#xa;ZEAAAAAHVXHaoHVXAdlPZO8VjDfN/b3s5gVUSrZO8VjDfN/b3s5gVUAAAAAA&#xa;AAAGp3zlbHONUxivi8abSpE092HDcd35cxXHtWI6NXXlcD7VtKj4HwAbYAk5&#xa;ZgyDcvDG+BLllsq7yoXVIbt6Ir5vk3CcnJ+3eiF+89SL9fBe1DWu2lXhja1G&#xa;1d8zDoc2sul9iX3JMVP7zYP7iAU+dOg0uDIqdTmMRIcRpb8iQ+4TbTLSCNSl&#xa;rUrQkpIiMzMz0IiEqxHOgxMl5sjy5jDLs3IsRiMhxwkqfdK0qG4aEEfFStxt&#xa;xWhanuoUfcIxjrv2fr7yTa1VsvIO0NcUyjVyI5CqEKBb1GYadZcTopJcvFfU&#xa;k+PBRK3iMiMjIyIxwi2OP8Hzl23c63fX8kXrddAiY2qKoNm1RESM8VScW0lo&#xa;prKJzL7RtpiNsI3ko1SrcSS0myaSD+pQCU9j3PVP7aj7RLMxRdwq/Z8WSk/v&#xa;KI5EM/3GQ8fCe09b/bTrVx5ebCe/XTalLokky+dDD7cltR/YqQgvtAVcBJz2&#xa;jbZoHaZXtK6scGnguXcEBK6Yn5zVUYi3obafKXKuoMy8haGRU6l1Wl1ynsVe&#xa;i1KLUIMpBOMSoryXWnUH3FJWkzJRfaRgPqAAAAAAAAABKrj8afHnN/eXtG3B&#xa;VRKrj8afHnN/eXtG3BVQAAAAAAAAAAASrDfhFztzgQ/dWgiqiVYb8IuducCH&#xa;7q0EBVQAAAAAAAAAAAaRe2acY4+qLdCuS62PhuQjlI9EgMuz6rITw4twoyVy&#xa;FlxLilBlxLjxAbuAlBZQy7cv/oDgKfHYV3k686yzR2ll+kllhMqSX9FxlozP&#xa;hw7o8lQNpysdtPyVj+3Gj7rFMteVPeT90h+YhB/9n/8AABT5k6DTmUyKhMYi&#xa;tLdaYSt5wkJN1xaW20EZ8N5S1pSku6alERamZCVbNk6C3ZFSpjkxhMyRfd/v&#xa;tRzcInXGm7rqKXFpT3TSk3GyMyLQjWnXvi107NOyhd2dsa1rHl+7QtxzotSZ&#xa;32WEUKjsR25SD32HDMoqn0klwkmfJupUad5O8WpjjF/g99iTMttpr+X8pX1e&#xa;VkXoibMoNLaVChSXShk+bkl8ynx39EvvqWpK29w1lvr3lpdIzD+lQCU9Yu0J&#xa;Te2o2fqRPMu4m4LLbkEr7DOHJi6feX9nkHg7i2lbd41jG9m3fGT3ztArztPl&#xa;q/oxZjRtf2yy/wDqAq4CVx9pDH8CQ1AyNDruOJjy0tIRd0DqKMtwz0JCJ6FL&#xa;guLMzIiSiQo9TLhxLWosPsyWW5MZ5DrTqSW24hRKStJlqRkZcDIy8oD9gAAA&#xa;AAAJVtLeDqkc4Fie9VLFVEq2lvB1SOcCxPeqlgKqAAAAAAAAAAAAAlVx+NPj&#xa;zm/vL2jbgqolVx+NPjzm/vL2jbgqoAAAAAAAAAAAAAADHVm3LeuNjqW4aDTq&#xa;oyX/AKubFQ+n+xZGQyIAJtP2Z9nCqLN2p7P2Npaz4mp+1IDhn+9TRj1xNl/Z&#xa;op6ydgbO+Moyy7imbSp6D/tJoU0AGHoNnWjayOTti1aPSE6absCC1HLT5tEJ&#xa;IZgAAAAAAAAAAAAB1Vx2qB1VwHZT2TvFYw3zf297OYFVEq2TvFYw3zf297OY&#xa;FVAAAAAa/fF+WnjigOXLeVYRT4KHEMN9ot12Q8s9EMstII3HnVnwS2hKlqPu&#xa;EY+HJ2SKVjC2irc2BLqk+ZIbp9IpEFJKl1We5ryUZkjMi3j0M1KUZJQhK1rN&#xa;KUKMtcxxiytN1ssp5dnx61fUhtSYzTJmqn25HWXGJASoi46cHJKi5V49dd1G&#xa;40gMf1PmvLpk7Ily8VWm5xSwwTL1yT29SMjW4olsU9Ki4GhKXX9D132FloW4&#xa;2JiTHmNjfkWjbTEeoTCLq2qyXFy6lNPhxkTHlLfePh3VrMbgAAAAAAAAAAAD&#xa;wZEZGRlqRiW1jZ8tZiov3Ji6q1DHFwPr5Z2Vb243DmOcNTlwFkcWRrpoazbJ&#xa;0iM91xBnqKmACRxMu3Lj2ZFoG0DSYNKbkuoiwrvpe/8AAc11R6JS+lZqcpzi&#xa;jMiJLyltGZkSX1KMkiuD0ToMGqQpFNqcNiXDltKYkR32ycbdbUWikLSrUlJM&#xa;jMjI+BkYh61VTZfntLdmS6lh2a+hk+XWp5+y3FmSUHvnqpdMNRkR7xmqKZke&#xa;psfkQu4DwRkoiUkyMj4kZDyAAAAJVcfjT485v7y9o24KqJVcfjT485v7y9o2&#xa;4KqAAAAAAAAAAACVYb8IuducCH7q0EVUSrDfhFztzgQ/dWggKqAAAAAAA1PI&#xa;WTrUxpCiPXA/JenVR441KpUCOqTPqb5FryUdhHbLMi0NSuCEF2y1JSRqLG5X&#xa;ybIsWPTaDbFF+H70uZ1cWgUcnDbQ6tBEbsmQ4RHyMVlKiU65ofdShJKcWhKv&#xa;xjDE6bLflXbddbcui+qy2SarX5DRI7TXeKLEa1Mo0RB960k+Om84pxw1LMMB&#xa;1o5iysfVGQrhlY+txzvbatucXwo+jiRlNqiOLWvA+Th7hpMv8ocIb5ZGOLEx&#xa;vT3KZYtqU2isvr5SQcVkidkueVx5w9VvLPU9VrUpR68TGyAAAAAAAAAAAA9U&#xa;qLGmxnYcyO0+w+g23WnUEpC0mWhpUk+BkZeQxKZeAI1rvOVfBN0SceTjUbqq&#xa;ZHa6qt+Us9T0epqlEhsjM9TXFVHcPQtVmRaCtgAl9u5im064INg5jt1FpXJU&#xa;XOQpkpp85FHray8kSUaU7jp6GfUzxId7u4TqSNYqAxdz2xb150Gba910eLVK&#xa;VUW+SkxJLZLbcTrqXDyGRkRkZcSMiMjIyIxKLdrtzYNuim45v+sza7ZleklC&#xa;ta55qzckwpKvydLqLn55q72PJVxcMiacM3TQt4LWAAACVbS3g6pHOBYnvVSx&#xa;VRKtpbwdUjnAsT3qpYCqgAAAAAAAAAAAAJVcfjT485v7y9o24KqJVcfjT485&#xa;v7y9o24KqAAAAAAAAAAAAAAAAAAAAAAAAAAAAAAAAAAA6q47VA6q4Dsp7J3i&#xa;sYb5v7e9nMCqiVbJ3isYb5v7e9nMCqgAAJztEV+q25ha65dvyTjVibDTR6W+&#xa;XdZmznERI6y/ouvtnp9gDB4sYPKd61LPFUWp6lMKkUOyI6tDbZgNuGiTUUl/&#xa;nJbqDJKv/s7TOmnKOa2IY22bdpNoW3SrToMYo9MosFinQmS7jbDLaW20/uSk&#xa;i/cMkAAA1jJ2QqLiiwK7ke4o02RTLehrmymoSELfW2nukhK1JSZ8fKoi+0Bs&#xa;4DQadmm0axf9esOjsz5qLUim9cFdbS0mk0p/QldSPSFuEZyNzt1IQlZNp0Nw&#xa;0bySVkYmXcTz7cK8YOT7Sk0BT6opVVqtRlwzeSk1qb5Yl7m+SUqUaddSJJn3&#xa;CAbaAntbz5iSlW5Xrip990Ovnb9vSbofp9GqkaVMep7LSnTdaaJwt5KiTolR&#xa;mSDMy7Yu6MpbeXMYXbS3axb+QLcmx4z8eHLNiqx3OpJT6koajvbizJt5S1pQ&#xa;SDPeNRkREZmA24BrtfyPj21IU2o3Rflu0eJTZbcCY/PqjEduNJWhLiGXFLUR&#xa;IcUhaFEg9DNK0mRaGQ16PnzFi77m48nXbTKbVY/weUPq6fGZRVVTGzcaTD1c&#xa;3nz3SLUiT+cnTXUBQwGBav2xnrrdsNm9KE5crLRPuUZNRZOchsy1Jao5K5Qk&#xa;6cdTTpoM8AD0zIcSoRH4E+KzJiyW1MvMPIJbbrai0UlST4KSZGZGR8DIx7gA&#xa;SPDbsywLjrOAqvNflMUKOirWnKkL3nH6E6s0FGNX5yobpGxqfE2lRVKM1KMx&#xa;XBJ80p+ALwxdkVjtXKbcybfmK/Tg1Vs4xtfccwqev72S/dWAAAABKrj8afHn&#xa;N/eXtG3BVRKrj8afHnN/eXtG3BVQAAAAAAAAAAASrDfhFztzgQ/dWgiqiVYb&#xa;8IuducCH7q0EBVQAAAfJVqrTqDSptcrExuJAp0dyXKkOnohlltJqWtR+QiSR&#xa;mf3D6xJ9pBPwzZ9Ex0fFu/bmplvyk/5yCbhyZzX3LhxZKD+xYDzg2h1KuInZ&#xa;xvCM81cF8NtuwokhJb9GohaqhwU+VKjSfLveU3nlkeqW0EVXAAAAGsX9kKi4&#xa;5hUedW4015ut12nW9HKKhCjTJmyEsNKXvKTo2SlkajLUyLXQjPgA2cBN7az7&#xa;j66eumqQ5TsS1LSe6ll3fPcYjUSQ+kzS83HkLcI3CaVohbm6TW+ZpStSkqJO&#xa;blZdxRBoEK652T7Sj0SpNLehVJ2tRkRZLaFJSpbbpr3FpJSkkZpMyI1EXlIB&#xa;toCd3Vn7FVr0Cq3A3d9LrbdCm02DU49IqEaS/CXOlNRmVPJ5QuTTvPJUZqMu&#xa;0SoyIzLQ9ioOR8eXVBhVS2L8t2sQ6lLXAhSIFUYkNSZSEKWthtSFGS3EoQtR&#xa;oIzUSUKMy0IwGxANYq2UMaUFuG9XMiWzTm6hNepsNcurx2SkS2lm27HbNSy3&#xa;3ULSpKkFqpKiMjIjIYi1c5Y1uu6qpY0a5YEG46ZVZVJKkTpsdubLXHSlTjzD&#xa;BOG441orvt0u9VqRaAN+AYGi37Y1yVmo25bt6UKqVajq3KjAhVFl+RDVrpo8&#xa;2hRqbPU9NFEQzwAMRdtq0G+LaqVo3PARNpdWjrjSWVcNUKLupMuKVEeikqLQ&#xa;0qIjIyMiMZcAE0whclfdp9Xxre9SdqF02HKRTJk54iJyqQ1oJcKoKJJEW88z&#xa;wc04E80+RcEkKWJPdSetnaNse4WO0avKi1K15xf516MRT4R/9BCamWn/AL4/&#xa;m41gAEq2lvB1SOcCxPeqliqiVbS3g6pHOBYnvVSwFVAAAAAAAAAAAAASq4/G&#xa;nx5zf3l7RtwVUSq4/Gnx5zf3l7RtwVUAAAAAAAAAAAAAAAAAAAAAAAAAAAAA&#xa;AAAAAB1Vx2qB1VwHZT2TvFYw3zf297OYFVEq2TvFYw3zf297OYFVABKdpo+T&#xa;xYzNX+Rp93WjUZB+QmI9w0950z+wm21mf2CrDWsmWVFyRjy5bAmPqYauGlSa&#xa;dy6e+YU62pKXU/MpCjJRH5DSQDZQGlYbvmVkLHNIuGrMJjVtDaoFdiF3YlVj&#xa;qNmYzp8yX23CI9C1Tuq00MhuoAJbtRWRcmSdnq/rDs+CuZWq5RX4cFhD7bKn&#xa;HVaaETjikoSf2qMiFSABw5uvZoyJYlrX1hHE9vP17Gd1xI9fp8aXVmzdgVWP&#xa;KYdm0x5clzlHY9RbaV2/bEhxx/f3UrIy9icGXVkTILGQqjhRdsW/Ova2Z71s&#xa;1RymqU1HpdPnoXUHWo7zjO8p6VHbSlK1LNEZpRpLThzCABwdreylfcTHiqZa&#xa;WM4ESsSKllJcgoz8Nla41VaqbdLSa+UIjS4lyCkk6/JkSN8kbh7v5mYMyfWq&#xa;ZIuW2tnxVlSbWodm06Pb6alTUruCRSa5GqD/ACS2HlNEhDUZTbDj6kKUb6t5&#xa;KCHOQAHC6PjnMrmV52eLl2fqlVIT951GczaCqpSXZhRJNv0uCxOPfk9Tcq2u&#xa;C+0tHK6pTIdNO+nQ1eyZsxXbMsjI5t4foFMr1Yty04Vvw4Uth5uC7BLfcixn&#xa;3VEptDCzIkqVuErcI0loREXM0AHCtWJs5r2hqJeMvH1aTS6NlCbXHXKcqgx6&#xa;SqlSY0qI1LQZKKoyJO5IaVI5ZZJIkOE22vRshzUAAAAABKdo8+Ws22qa3/lE&#xa;3IFnciXlPka9Ckuaf9Uw6f3EYqwkt3LK+s9WfZsX5WDYTL14VhRcUolvNOw6&#xa;cwr5zUl2e9ofcOO0enbEYrQAAAAlVx+NPjzm/vL2jbgqolVx+NPjzm/vL2jb&#xa;gqoAAAAAAAAAAAJVhvwi525wIfurQRVRKsN+EXO3OBD91aCAqoAAAJTmw+Qv&#xa;LC1Sd4R4eQFcsZ9wuWoNXjN6/wDWvtF95kKsJ7nu161dOMKmm1oxSLioj0W4&#xa;aI1rpy0+BIblMs6+QnVMk0f6rigFCAYezrsol92pSLztyT1RS63CZnRHDLRR&#xa;tuJJREovzVFroae6RkZHxIZgAEb2qMUVPNGP6JY8GnyZcVy8KDLqqY04ojqK&#xa;azNbXKWl3eSpJk0Sz7Q9/wDR46CyAA4c1PB+V7IoMbFlMx+/e+O8d3jTbstS&#xa;ImfDJ2oUg+XJ2iuIkup3nIbrqX2VOGSHENMpNZLQZH9VlbO1w1jIdIvq7sVR&#xa;4FFm1u8q+VDqK4L/AMBnPiwI0ZCm23Ft8q8UaS8vklOJSuQ4Rq48eXgAOAVW&#xa;2S8lQcM2da1Ew7T5k2Ji+hUWv0lM6EwibVWK5S5kmM84bm6vVtmao3NVIPVR&#xa;EZmoiVunYwyhFvVGdrewLUqSyxkOn1rrJYn0pqoOwWaBNprswt2T1Gl5TsxB&#xa;7nL8W46TMyUeg5kgA4L23hfMlAXULlvLZxYvWReFLuylKt+RV6aqNR3p9wzp&#xa;7an3XHiLqaQzKZJxbHKOpKMguT3tCLfYezvc8CQ5W2LDp6a4rM0S6jnIdYN4&#xa;6S2hppTxOqWa93kycTyZnyhkZ9qevHlWADhXs9YmzlbObLIu698fVqmxKdRL&#xa;gotXNtVBj0mDIlvR5LZwWYauqnIilRVFyklTjxuONmaEFvqLmoAAAAACU5bP&#xa;qjKeEITXF5m7qjUVkXd5BFvVVlR/dykln95kKsJLSFlfm0VVK8x8pScbUZVv&#xa;MuFxQ5V56mZEtJeQzZjsQU6+Q5LqeBketaABKtpbwdUjnAsT3qpYqolW0t4O&#xa;qRzgWJ71UsBVQAAAAAAAAAAAAEquPxp8ec395e0bcFVEquPxp8ec395e0bcF&#xa;VAAAAAAAAAAAAAAAAAAAAAAAAAAAAAAAAAAAdVcdqgdVcB2U9k7xWMN839ve&#xa;zmBVRKtk7xWMN839vezmBVQAAABFrykdgW+52V1KcKwbrWwi7W0J1RRp6Uk0&#xa;1WDIi4MrbS2zJPuIJtl09EpeULM062+2h5lxLjbiSUhaT1JRHxIyMu6Q8SI7&#xa;EthyLKYbeZeQbbjbiSUlaTLQ0mR8DIy4GRiKxaFdmzibx2pTqndWL941poUR&#xa;s5FUtlJ90oSO+lwi7vUxautFwa5RG60gLcAw9p3ha190OPctnV6FWKZJ15OT&#xa;EdJad4u+QrTilaT4KQrRSTIyMiMjIZgAAAAAAAAAAAAAABp2UcmUrGFvtVGT&#xa;DfqlWqclNOodFiGXVVWnrI+TjtEfc7hqWs+1bbStxRklJmPhv7MFGtCptWfQ&#xa;qbKuu9JqN+JbtLUlT6UH3H5Th9pDj69150yI+JIJxeiD+LHuKqrAuR/KOUax&#xa;Hr98S2VRmVR0KTT6FEUZGcOAhXbEkzSk3HlfKPKSRq3UpQ2gMliLH9RsagzJ&#xa;l0VJqqXbck1dYuKoNp0Q7LWlKUsta8SYYaQ2w0R8eTaSZ9sajPegAAAAASq4&#xa;/Gnx5zf3l7RtwVUSq4/Gnx5zf3l7RtwVUAAAAAAAAAAAEqw34Rc7c4EP3VoI&#xa;qolWG/CLnbnAh+6tBAVUAAAAAARSFNa2fb+coVVeU1jy/Kqp6jylFoxQK1IV&#xa;vOwnD00QxKdNTrKj4E+461qXKMpFrGNuO3KFd1Bn2xc9Ji1Sk1RhcWZDktkt&#xa;p9pRaKSpJ90hJIVWvDZ2ZKl3lIq9345aVuwbgS2uXVKAz5GqilJGuTHQXBMt&#xa;JKcSkvl0nop8wtoD46PWaRcNLjVugVWHUqdNbJ6NLhvpeYfbPuKQtBmlST+c&#xa;j0H2AAAAAAAAAAAAAAAJ5lrJcq0UU6zrOjM1O/LrNyNQKevU2290i5WdJ3eK&#xa;IrBKJTiuG8ZobT27iCP57wzFyddex3iykou29EluyGW3DTTqLr3HKlJSRkwW&#xa;nbEyklPuF3qN3VafsxhiluxnqjdFx1x25r2r+4dZr0homzcSkzNuLHaIzKPF&#xa;b3lbjKTPumpaluKUtQZbGdgwcaWZBtOHOkVF5nlJE+pSSLqipTnlm5JlvacO&#xa;UddWtZ6cC3tC0IiItpAAASraW8HVI5wLE96qWKqJVtLeDqkc4Fie9VLAVUAA&#xa;AAAAAAAAAABKrj8afHnN/eXtG3BVRKrj8afHnN/eXtG3BVQAAAAAAAAAAAAA&#xa;AAAAAAAAAAAAAAAAAAAAAHVXHaoHVXAdlPZO8VjDfN/b3s5gVUSrZO8VjDfN&#xa;/b3s5gVUAAAAAAAE2uzB9Eqtdfvex65UrEu5/Q36tRNwm55lpoU6I4SmJZaE&#xa;Sd9xHKpTqSHG+6Mam/c1WERMZHxmV2wEcDr1j9uvT9N6lyF8u33O9juSj4lw&#xa;LjpWwAaDauesPXlUSodFv6mN1nhvUaomqn1NGvc3oUkm5Cfm4tlxIxvwwt02&#xa;VZt8046Re1pUa4IB66xarAals8e72jiVJ/uGh/FjxPC42tHuS0tO9btq6anS&#xa;2E/Z1Ow+lgy+w2zIBVgEq7BtwxuFI2jMq09JdxPVdLmafvlwXjP95mHYZyAr&#xa;g7tV5VcT+j1FbKP700gj/vAVUfLU6pTKLCdqVYqMWBDYLedkSXktNoL51KUZ&#xa;EX7xM+wA1M4XDmbKtXSffJ65107X99PRHMv3GQ+mm7NOCqfNaqkjG9MrVQYP&#xa;eanXAp2sym1fpJfmqdcSf2krUB8z+0rjioOOQ8bIrGSZ6FGgmbPhHOj75cDS&#xa;ueZogtHrw0ckIPu/MenocoefMlaJuOvQ8Y0Fzv4FBdTUK2+jXvXJriOQi6lq&#xa;SkstOr46ofQZaitNNNMNIYYbQ222kkIQgiJKUkWhERF3CIfsBrViY4svGtKX&#xa;SbMoTUFuQ5y0t9S1vSpr3lekyHDU7IdPyuOKUo/nGygAAAAAAAAJVcfjT485&#xa;v7y9o24KqJVcfjT485v7y9o24KqAAAAAAAAAAACVYb8IuducCH7q0EVUSrDf&#xa;hFztzgQ/dWggKqAAAAAAAAACVVfBTVKqsm6cMXVIx9WZbhvy40aMmVRKi6eu&#xa;qpVOUaUbxmeqnY6mHlHpvOKLgPUWVslWSfU+WsR1F+Kjvq/ZZLrEMyL85yGS&#xa;SnNGZcd1tl9JaH8ofDWtAA0yzMzYoyFIXAs3INDqc9o9HqeiWlE1g9Nd12Mv&#xa;R5s9PItBGNzGt3ljXHWRY6Il/wBh2/cjTZaNpqtNZlcnx11TyiT3TI+JGWhk&#xa;fEaaWzTjmDxtap3ta+net0S8qpGjp+6Ny5xy/wBWAqwCVdhG6mOFL2lcqwk+&#xa;RO/RpWn75NOdM/3mHYYvxfCTtUZVeT5U9SW21/e3SUn/AHgKqMbcFzW3adOX&#xa;WLpuCm0aA338qoS247KfvWsySX9onfxeqXN4XLlXKdaSffJVeEqnpV95U84/&#xa;D7O4MjQNnfB9t1FFap+MaE/VW+8qlRjdXzk/dJkb73+2Axato216+XIYjtm4&#xa;8kPr4IfoMLcpnHuKOpSTahqT5T5N1xehcEGZkR+pyw8yZM8J16M2hQXO/tyz&#xa;ZLhSX0GR6ok1ZSUPaGRlqmK3HURl+VWR6CvAAw9p2fa1iUNi27Nt+DRqZH1N&#xa;EaGyTaN4+Klq04qWo+Klq1UozMzMzPUZgAAAAAASraW8HVI5wLE96qWKqJVt&#xa;LeDqkc4Fie9VLAVUAAAAAAAAAAAABKrj8afHnN/eXtG3BVRKrj8afHnN/eXt&#xa;G3BVQAAAAAAAAAAAAAAAAAAAAAAAAAAAAAAAAAAHVXHaoHVXAdlPZO8VjDfN&#xa;/b3s5gVUcatnrNtr2NgLGllXTZuVYVat+z6NS6jG7FdzuchKYhNNut76ICkK&#xa;3VoUWqTNJ6akZlxFA+Mtjr6OZV/Ce6ujgFVASr4y2Ovo5lX8J7q6OD4y2Ovo&#xa;5lX8J7q6OAVUBKvjLY6+jmVfwnuro4PjLY6+jmVfwnuro4BVQEq+Mtjr6OZV&#xa;/Ce6ujg+Mtjr6OZV/Ce6ujgFVASr4y2Ovo5lX8J7q6OD4y2Ovo5lX8J7q6OA&#xa;VUBKvjLY6+jmVfwnuro4PjLY6+jmVfwnuro4BVQEq+Mtjr6OZV/Ce6ujg+Mt&#xa;jr6OZV/Ce6ujgFVASr4y2Ovo5lX8J7q6OD4y2Ovo5lX8J7q6OAVUBKvjLY6+&#xa;jmVfwnuro4PjLY6+jmVfwnuro4BVQEq+Mtjr6OZV/Ce6ujg+Mtjr6OZV/Ce6&#xa;ujgFVASr4y2Ovo5lX8J7q6OD4y2Ovo5lX8J7q6OALj8afHnN/eXtG3BVRCqJ&#xa;esHJW0laVdtq271YptEse54k6ZW7Nq9FYbfkz6EphpLk+Mylxa0xZCiSg1Ho&#xa;0oz0F1AAAAAAAAAAABKsN+EXO3OBD91aCKqOP9u5IpOL8o5ihXba2QP+W7wh&#xa;1SnSKXYNcqsWVF63aPHNxEiFEdaPR6M+gy394lNnqRAOQACVfGWx19HMq/hP&#xa;dXRwfGWx19HMq/hPdXRwCqgJV8ZbHX0cyr+E91dHB8ZbHX0cyr+E91dHAKqA&#xa;j9W2rMS0GmSq1XKfkqnU+E0p+VLl4tuhllhtJaqWtaqeSUpIuJmZkRD6/jLY&#xa;6+jmVfwnuro4BVQEq+Mtjr6OZV/Ce6ujg+Mtjr6OZV/Ce6ujgFVASr4y2Ovo&#xa;5lX8J7q6OD4y2Ovo5lX8J7q6OAVUBKvjLY6+jmVfwnuro4PjLY6+jmVfwnur&#xa;o4BVQEq+Mtjr6OZV/Ce6ujg+Mtjr6OZV/Ce6ujgFVASr4y2Ovo5lX8J7q6OD&#xa;4y2Ovo5lX8J7q6OAVUBH6ftWYlqyZCqVT8lTSiSHIkg4+LbocJl9B6LaXu08&#xa;91aT4Gk+JeUfX8ZbHX0cyr+E91dHAKqAlXxlsdfRzKv4T3V0cHxlsdfRzKv4&#xa;T3V0cAqolW0t4OqRzgWJ71UsPjLY6+jmVfwnuro4aVlrLVAyVQKDaFoWlkp+&#xa;pP3xZ8sil42uGCw2xGuGnyZDrkiTCbZaQhll1ZqWtJaIMByKAAAAAAAAAAAA&#xa;ASq4/Gnx5zf3l7RtwVURTKlxNWNn3H961e37rm0Vmz7qpb0mhWxUq1yEp+bQ&#xa;nGW3UQWHlt76Isg0moiSfJKLXXgMt8ZbHX0cyr+E91dHAKqAlXxlsdfRzKv4&#xa;T3V0cHxlsdfRzKv4T3V0cAqoCVfGWx19HMq/hPdXRwfGWx19HMq/hPdXRwCq&#xa;gJV8ZbHX0cyr+E91dHB8ZbHX0cyr+E91dHAKqAlXxlsdfRzKv4T3V0cHxlsd&#xa;fRzKv4T3V0cAqoCVfGWx19HMq/hPdXRwfGWx19HMq/hPdXRwCqgJV8ZbHX0c&#xa;yr+E91dHB8ZbHX0cyr+E91dHAKqAlXxlsdfRzKv4T3V0cHxlsdfRzKv4T3V0&#xa;cAqoCVfGWx19HMq/hPdXRwfGWx19HMq/hPdXRwCqgJV8ZbHX0cyr+E91dHB8&#xa;ZbHX0cyr+E91dHAKqAlXxlsdfRzKv4T3V0cHxlsdfRzKv4T3V0cAqo6q47Kf&#xa;xlsdfRzKv4T3V0cP4A/FO2p/q05V9Taj/wD0gOymAAAAAAAAAAAAAAAAAAAA&#xa;AAAAAAAAAAAAAAAAAAAAAAAAAAAAAAAAAAAAAAACVbVni1ZO/qtUf9woVUSr&#xa;as8WrJ39Vqj/ALhQqoAAAAAAAAAAAAAAAAAJVs+/5Hf3OBXv9+QqolWz7/kd&#xa;/c4Fe/35CqgAAAAAAAAAAAAAAAAAAAAAAAAAAAAAAAAAAAAAAAAAAAAAAAAA&#xa;AAAAAAAAAAAAAAAAAAAAAAAAAAAAAAAAAAAAAAAAAAAAAAAAAAAAAAAAAAAA&#xa;lVxZTyOnJVYx3j7F9Kr50Kl06pzJk+5Tpxf44uSltCEFFd3tOpFmZ6l3xcAF&#xa;VASrrz2j/MRafr6vo8OvPaP8xFp+vq+jwFVASrrz2j/MRafr6vo8OvPaP8xF&#xa;p+vq+jwFVASrrz2j/MRafr6vo8OvPaP8xFp+vq+jwDas8WrJ39Vqj/uFCqjj&#xa;9lhjaRybjO58eIw3aVOO46VIppSzvdbpMcqg07+51Ane01101LX5yHIEAAAA&#xa;AAAAAAAAAAAAAEq2ff8AI7+5wK9/vyFVEMtiBnvHNSuyBQ8X2vX6bV7mqNbi&#xa;THbuXDcNqS5vpStrqJzdUXcPRRkM9157R/mItP19X0eAqoCVdee0f5iLT9fV&#xa;9Hh157R/mItP19X0eAqoCVdee0f5iLT9fV9Hh157R/mItP19X0eAqoCVdee0&#xa;f5iLT9fV9Hjxb+VMk9kqiY9yDi6k0Eq/TqjUIk2Bcx1HQ4io5LQps4rWmvVK&#xa;dD3j70+ACrAAAAAAAAAAAAAAAAAAAAAAAAAAAAAAAAAAAAAAAAAAAAAAAAAA&#xa;AAAAAAAAAAAAAAAAAAAAAAAAAAAAAAAAAAAAAAAAAAAAAAAJVaHjK5M/qtan&#xa;+/rAqolVoeMrkz+q1qf7+sAKqAAAAAAAAAAAAAAAAAAAAAAAAAAAAAAAAAAA&#xa;AAAAAJVefjH4w/q9dP8A36WKqJVefjH4w/q9dP8A36WAqoAAAAAAAAAAAAAA&#xa;AAAAAAAAAAAAAAAAAAAAAAAAAAAAAAAAAAAAAAAAAAAAAAAAAAAAAAAAAAAA&#xa;AAAAAADj1i6wazk2iV27q9mDIsWS5el209Een1vkI7EeHX58SO22jcPdJLLD&#xa;ae75NRuHYC/bVlX1j/lgKqAlXYC/bVlX1j/lh2Av21ZV9Y/5YCqgJV2Av21Z&#xa;V9Y/5YdgL9tWVfWP+WAqoCVdgL9tWVfWP+WHYC/bVlX1j/lgKqAlXYC/bVlX&#xa;1j/lh2Av21ZV9Y/5YCnT4zsyDIiMTn4Tj7S20SWCQbrKlEZEtG+lSd5Oupby&#xa;VFqXEjLgP5b4BuTbXufbdquBLxyBIjN2guAq77gi09lqTVKPTHXXoBGs0GRF&#xa;JOY2R6bq1tuGat7RZHz67AX7asq+sf8ALGOi7L9vQa3PuaFkzIkesVRplidU&#xa;GqyhEmU2zvckh10mt5aUb690lGZJ3laaamAswCVdgL9tWVfWP+WHYC/bVlX1&#xa;j/lgKqAlXYC/bVlX1j/lh2Av21ZV9Y/5YCqgJV2Av21ZV9Y/5YdgL9tWVfWP&#xa;+WAqoCVdgL9tWVfWP+WHYC/bVlX1j/lgKqAlXYC/bVlX1j/lh2Av21ZV9Y/5&#xa;YCqgILXLRrOMsm4kXS8p31VY1xXZLo9RhVer9Ux345W/VpSSNG4XEnojCiPX&#xa;837RegAAAAABJM9fDM+t4ptGl3XWqBGue9HqfUZFIldTyHI7dAq8tLZL0PQu&#xa;WisKPhx3NAFbASrsBftqyr6x/wAsOwF+2rKvrH/LAVUBKuwF+2rKvrH/ACw7&#xa;AX7asq+sf8sBVQEq7AX7asq+sf8ALDsBftqyr6x/ywFVASrsBftqyr6x/wAs&#xa;OwF+2rKvrH/LAVUfzKz7tkbR+Ndryn4jLFFv1y74jlRpdlTUKfZiT4dXdinE&#xa;deZ1NSzaKObazS4gjUSz1Tunrzg7AX7asq+sf8savV9jHHdfvqi5NrV8ZAmX&#xa;VbrLsel1d6uEqTEbcIyWlC+T4EZKV928rTTU9QuVJRVW6VDbrsiI/Ukx2ymO&#xa;xGVNMOP7pcoptClKUhBq1MkmpRkWhGZ90fWJV2Av21ZV9Y/5YdgL9tWVfWP+&#xa;WAqoCVdgL9tWVfWP+WHYC/bVlX1j/lgKqAlXYC/bVlX1j/lh2Av21ZV9Y/5Y&#xa;CqgJV2Av21ZV9Y/5YdgL9tWVfWP+WAqoCVdgL9tWVfWP+WHYC/bVlX1j/lgK&#xa;qAlXYC/bVlX1j/lh2Av21ZV9Y/5YCqgJfs31Csz8ZPor1eqFZk027Lso6JtQ&#xa;d5WQ5Hh3BPixycXoW8aWWW066cd0VAAAAAAAAAAAAAAAAAAAAAAAAAAAAAAA&#xa;AAAAAAAAAAAAAAAAAAAAAAAAAAAEq2afB1V+cC+/eqqCqiVbNPg6q/OBffvV&#xa;VBVQAAAAAAAAAAAAAAAAAAAAAAAAAAAAAAAAABKsyeEXBPOBM91a8KqJVmTw&#xa;i4J5wJnurXhVQAAAAEqzJ4RcE84Ez3VrwqolWZPCLgnnAme6teAVUAAAAAAA&#xa;AAAAAAAAAAAAAAAAAAAAAAAAAAAAASrZp8HVX5wL796qoKqJVs0+Dqr84F9+&#xa;9VUFVAAAAAAAAAAAAAAAAAAAAAAAAAAAAAAAAAAAAAAAAAAAAAAAAAAAAAAA&#xa;AABKtmnwdVfnAvv3qqgqolWzT4OqvzgX371VQVUAAAAAAAAT9zPGLYFUuSm3&#xa;Hd1Mt1Fs1D4NkS61Pjwo8h0o8V5w2FOOEbiG+rY7a1aESXF7ndG/OKUhtS0t&#xa;qcNJGZITpqo/mLUyLX7zHGOy9nyuS71xbc+SLGp8841vXjUbnKYuPKRBrtam&#xa;U+QcciNR8oSUFMYJaCUgm2t3UiUkjC/TshWDTKpSKJUr4t+JUa+kl0mI/U2W&#xa;36gk+4cdClEp0j/UIx7mL1s2UuI3Gu2jOrnlKOIlE9pRyCiq3JJtkSu35JXa&#xa;uaa7h8FaGP570nZJz1FoVPtS5LavB5dwWbaFEWuj1G3ExaO5ToyG3mZcqYxI&#xa;lsky6hT7a4O+SlLPTRRbw2zKeyhnuoXve1cx/AZjsUusPpsV5FRZQfUdxNyk&#xa;3C6pClkSOQdmE8hCi1WcZO6RnoRhy9tnNGP7qmVyLBrkZhmi1uJQETJMlhMa&#xa;pSpUCLOY6kcJZk8lbM1ok9xSlEvQjIiUeYp2RMf1iTWYVIvq3p0i3TUVYajV&#xa;Nh1dNNJGauqEpUZs6aHrv6dwxxYjbM+S7N2g6ple06U9LoJ19qi02iOy4nI0&#xa;6lO29TYR12GSlEbcph+IbK0qMlrjocJtOqi5SNwdm3K1q4xJN6UasUVVh2aq&#xa;jVKdcVTt2PQ6og58B2VFZVBjFKeiyW4jhqeqDiVNm4W8SlKcWQf0Rte97Lve&#xa;KqdZd30Svx0ElSnqXUGpSEkrXdM1NqMi13VafPofzD5qJknHVy1eTb9uX9bl&#xa;VqkNgpMiDCqrD8hlkz0JxbaFGpKdeG8ZaCEbJtRh3JlfNt3UmwI1pQahOoTH&#xa;UbMyFJM5DUAzcNxcFx2OTu640ZpQ4rRKkGoyUZkUYw3YOTrxxxZy7BwnAoq7&#xa;Zg3pJVXanIhHCuR2c1NYjRCJp05JtuPusuv8shsknGIiNRbpmHLu49ozB9s2&#xa;fNvyZlC2pVDp1QjUuXLg1RiShmU+8lpDSzQsySreUZmR8SSlaj4JPT22LnnF&#xa;+QazNtmjXVTma5DqVQpqaTJnR0zZPUbqmnZDLKXFLWyZoM0r073iZF3Bw/pm&#xa;A85PQrwfl4tumUmp2zaSIcaru23GWuVRqz1S/EaYp7iGGUqYeWUflDUZkhwn&#xa;HU6oSdZoOz/ccGfRrpZx1EgVns11K8ZsnfiFKRSX0TG0OrcQs97Vp1lBtpUa&#xa;tOG7oR6BypAAAAAAAAABKsyeEXBPOBM91a8KqJVmTwi4J5wJnurXhVQAAAAE&#xa;qzJ4RcE84Ez3VrwqolWZPCLgnnAme6teAVUAAAAAAAAAABqeUr8LG9mSbnbp&#xa;fwnMOTDp1PgcvyPVk2XJbjRmd/dVuEp15BGrdVoWp6HoMDRNpHCFw1Sr0ml5&#xa;Dp6naJFmTpbrzbrEY40RW7KeZkOIS1IbZMyJxbSlpQZlvGWoClAOPdK2zceX&#xa;Te8i2rM5Co0uK1Qlu1OUcyG4blSfmNkyiMuKbilpbiIdR3Euk+nRSSIlK82R&#xa;to41u+I3cE2NKoFunQnaw5PqiHmXUupqHUSYyY5tEt1a17u5ye8alKJCUmoB&#xa;yDAT1O0BiBV+oxl15tJuJx9EPqZcSQltEtbPLIirfNvkUSTa7cmFLJ3Tjuj1&#xa;WltE4Zvq8TsG1L4Yn13SSpqMmLIQmQiOrcecZcW2TbzaF9qa21KTvcNdeACj&#xa;gJrXNo7C1uX27jWtXs3HuGPNhU+TG6ikrbiyJaUKioffS2bTPLcogmzcWklq&#xa;PdIzURkXz1XaZw1TKtWreK6nJVVoTU5T8aPTpTiXnobSnJMZl5LRtPvtpQo1&#xa;stqU4ndPVJaGAqQDjbRdu/DsifTTup2VbNIrFl0a8Yc2bGlKWTc2RLZdQ+0h&#xa;g+QaYVFRvSVqJpXLpMjJO6pfJEjIy1I+ADyAAAAAAAAACVbNPg6q/OBffvVV&#xa;BVRKtmnwdVfnAvv3qqgqoAAAAAAAAAAAAAAAAAAAAAAAAAAAAAAAAAAAAAAA&#xa;AAAAAAAAAAAAAAAAAAJVs0+Dqr84F9+9VUFVEq2afB1V+cC+/eqqCqgAAAAA&#xa;AAAAAADDXXeVpWJR3LhvW5qXQaY0ZJXLqMtEdolH3E7yzIjM9OBd0/INBLP3&#xa;w9wxlia/bxbV3k1umopME/1ifqS4/Ko/WZS4R+TUBVx632GZLLkaSyh1p1Jo&#xa;cbWklJWky0MjI+BkZeQS0ri2nKn20LFePaKyfenUrxlyHy/pNMU/cL9zyv8A&#xa;x87+1OXbdT4qV+py1RT/ALW6f/dAUikUSjW/BRS6BSIVNhtmZojw46GWkmfd&#xa;MkoIiLX7h74kOJAjoiQIrMZhvXcaZQSEJ1PU9CLgXEzMS87q2laV21Vw3ZdY&#xa;ZLuqol6PJkK+5mVBabL/AF/9g/J7RVvULtco2ReePiT38qt0sn6ej7Vz4S34&#xa;rSfLq46jh8x8AFYAfFRa3Rbkpcet29V4VUp0tHKR5kKQh9h5P6SFoM0qL7SM&#xa;faAAAAAAAAAAAlWZPCLgnnAme6teFVEqzJ4RcE84Ez3VrwqoAAAACVZk8IuC&#xa;ecCZ7q14VUSrMnhFwTzgTPdWvAKqAAAAAAAAADR7/saq3rdFjvnLjt0K3Kq9&#xa;WqgybiiekvoiutREJIkmRpS4+bxmaiMlsNaEep6cTbW2C78asuTjG4KhTY8C&#xa;jWjWbaold68q7VHJLstrkWXipchSYVPb5P8ALNNk6Sz7VG4kc6gAcVW8C57v&#xa;bK7WV8hxbAobrci0i+D6NVZcsuRpMqe8+o3HIrWqnOrC3E6cCLdUrtd5WrOb&#xa;FWTJ/wAAXA9W7cp9044gyjsuWzUpbsZdRTVlzI7sxnkUp5Jxha2HE/Km2Ti1&#xa;INR6GXMatVui23S5FbuGrwqXToiOUkTJshDDDKf0lrWZJSX2mYmhbRVvV3tc&#xa;XWReeQSV3kqiUsmKev7UT5q2IrqfLq26vh858AEapmyVkBGWJFYq7dNft2oX&#xa;wm/nZnX1XtYsg1ofOM3SGzbhOOIkJ0RKWf5Mk7zRmW6MBs2xr3mZWxPZsqJT&#xa;JlHxFZ1aoblTYgT2Jh7xwWGinIkx20RX3CY15Ftx7f5Nxze3d0chiuraVqvb&#xa;UrDdl0dk+4qt3o8qQn72YsF1s/8AX/2jzv7U59t1PipP6nLVFX+1ul/3QEWu&#xa;XGuY8i5VznZFtU63afad1XFbXwhXZ8qQ1Pisx6bT1vKiMpYU3JNRI3EKN5rk&#xa;nCUfbdwvW5sv50n5bpl61uq0SoxaTdddqXV0i7qmvlqbUYs+M02xSuQ6ihOR&#xa;25je9uGpT6m1Gp1G8e9bDuLacpnbTcV49rTJd8dNvGXHfP8AotP0/cP97yf/&#xa;AA8Hn74B4ZNxNftnNp7+a5TUVaCX6xv01cjkkfrPJbIvLoAk9H2XcoOYsu+0&#xa;65ItOPWK7g+m4thqjz5D7CJ0NuqNdULWqOhSWHEzIq+CVKSZOJ3VbiVL5S0u&#xa;M5CpkSG8pKnGGG2lmk9SM0pIjMtfuHwWpeVpX3R27hsq5qXXqY6ZpRLp0tEh&#xa;o1F3U7yDMiMteJd0vKMyAAAAAAAAAAAlWzT4OqvzgX371VQVUSrZp8HVX5wL&#xa;796qoKqAAAAAAAAAAAAAAAAAAAAAAAAAAAAAAAAAAAAAAAAAAAAAAAAAAAAA&#xa;AAAACVbNPg6q/OBffvVVBVRKtmnwdVfnAvv3qqgqoAAAAAAAAlVfyLeF61+Z&#xa;Y2EGYCzpr6odeuyoIU7T6S8RdtHjtJMjmy08N5BKS00f5Re8XJK92Z6/cMyX&#xa;b2IbIqztLr97OPm/UmfytLo0bcOdLb+Z35VmO0r812U2syMkGR73bFsUCzLf&#xa;gWra1KYptJpjKY8WKyWiW0F9/EzM9TNRmZmZmZmZmZgNOs/BNk2zWGrwrXVl&#xa;33gguNyXE4mXNQZ6bxRy0JqGg9C+TjIaRw1NJnxFFAAAAAAAAAS6vYBttNUk&#xa;XbjCpScd3RIXyr0+hoSmLOXw16ugn/i8rUiIjWpJPEWpIdQfEe+ysm15u4Ws&#xa;b5do0KhXa+lxymyITil0yvst6mpyGtfbIdSkt5yK58ogtTSbqC5QUoa3kGw6&#xa;Jke2JFtVo3mTNaJMKdGVuSadMbPeZlx191Dra9FJV9mhkaTMjDZAGgYWvSuX&#xa;ZbEul3mcfrutKoO2/cXU7fJtOTGkIWmQ2jUzQ3IYdYkoSfFKX0pPUyG/gAAA&#xa;AAAAlWZPCLgnnAme6teFVEqzJ4RcE84Ez3VrwqoAAAACVZk8IuCecCZ7q14V&#xa;USrMnhFwTzgTPdWvAKqAAAAAAAAAAJreuTa85cLuN8RUaFXbtYS25UpE1xSK&#xa;ZQGXNDS5MWjtluqSe83Fb+UWWhqNpB8oPrzTelctO2IlLsw4/XddtQat+3eq&#xa;G+UabmOoWtUhxGpGtuOw0/JWkuKksKSWhmM3j6w6Jji2I9tUU3njJa5M2dJV&#xa;vyajMcPeelyF91bri9VKV9uhESSIiDUqDgG21VSPduT6lJyJdEdfKsz64hKo&#xa;sFfHTqGCX+LxdCMyJaUm8ZaEt1Z8RUR41Ih5AAAAAAABOrwwTZNzVh28KL1Z&#xa;aF4LLhcluuJiTVmWu6UgtDamILU/k5KHUcdSSR8Rj6BkW8LKr8Oxs3swEHUn&#xa;0w6DdlPQpqn1Z4y7WPIaUZnClq47qDUpp0/ya94+STVRi7ntigXnb8+1bppT&#xa;FSpNTZVHlRXi1S4g/u4kZHoZKIyMjIjIyMiMBlAEwwxX7hhy7hxDe9Wdqlfs&#xa;lxg2Kk9+VqlGk75wZbnzu/JPR3VfnOxXFkREsiKngAAAAAAAlWzT4OqvzgX3&#xa;71VQVUSrZp8HVX5wL796qoKqAAAAAAAAAAAAAAAAAAAAAAAAAAAAAAAAAAAA&#xa;AAAAAAAAAAAAAAAAAAAAACVbNPg6q/OBffvVVBVRKtmnwdVfnAvv3qqgqoAA&#xa;AAAAAITdhFKzXk05XE6Xiem9Q6+TqqXWOqtPv6jia/ckcYMa1OtYytLZzwtc&#xa;b8udSa5VrYu6y5zpmtRsLhKVUKapZ/nx330rb1PixIQkvyJjllmI41hX3beZ&#xa;akyly3DivWjdpLb322oEt1tUaY4nTi2zITuLM+1S1MeWrgjhSHbHsp+LQ4L1&#xa;n0RyPbDjT1DZVT2jRS3G2zbbVGSadGFJbM0JNGhkkzItC4AODtk7SW1Ze9pN&#xa;XbTESI8q77Rrtw02FUGaCmNElQ0pejs09DMpyc+3qRxnuqmd4lOpV8kZbg+6&#xa;i7VmS8s3HVbTpcxlugXi9MuC3Hyht69aMaNVI0nUzTqpS5tPjHvH2xIqLZkZ&#xa;FoRcw7bxLi2zrjqt4Wljm2aLXa6ajqdSgUphiTM3lbyuVcQklL1V2x6nxPie&#xa;p8R9NNxvjyjIhN0ewrdgpptNco0JMalsNFGp7ikqciN7qS3GFKQg1NlokzSk&#xa;zLgQDgpge6bltel2tdefbbjzq5RcRMXBh6nx5SnaaqPEphHKaSk0l/yqpCWV&#xa;uL7YyZeNLRklDhqzVv7Tu0NSrYcmXVU3GkXLbtDqEWs1qPQUopEqo1aHBOVG&#xa;jU+a845AS3NW6lUpJKJUYkqWrfNKebDti2S/EocB6zqG5GthbblEZVT2Tbpa&#xa;22zabVGSadGDS2ZoSaNNEmZFwPQahK2esXwLRuW1ce2hQLHVdREc+XRKHDbN&#xa;9ZK3iN1tTRtvJ7pGhxJpNK1lw3tQHE3LcvIGQJj+ILtrtp5T62Mw29SqcVdh&#xa;NRocxt6iPSVsz0xmlINSVuKI9xsy7VPap4kVJp9sX3jy5LMwlaFPx9g87vRX&#xa;K9U6hY1NYksyVQUwkMxmymRkN8sspLjizU0Z8nG0QffGmtYe2b7ExNS5kUqb&#xa;R6nKm1lqukpuhRIMWFKajIjsnDisoJEckNoPQ06rNTjpmo98xut940x1lGmM&#xa;0XJNi0C6YEZ8pLMasU5qY026RGRLSlxJkStDMtS8hmXcMwHDpW0JtE3JZdzX&#xa;7Bv6m0eNaGESvdyNFojDqarVVqrbLEpC3d42o6ygsSOT7buNpIySbhLytw5A&#xa;2m7KrN4u1HN0SqRLDZtGsLjdbMNoql8LSzZkw3FEW82whLKzaUgydI3S31rJ&#xa;GiuW7tgWI/FmQX7KoLkao0lugzGV01k0SaY2ThIhOJNOi46SeeImj1QXKr0L&#xa;tj19Nw25juLTq1XLot630wnYjTtYlTYbJtuRoe860b6lJ0Uhnt1p3tSRqZlo&#xa;A02ziKLtKZOhReEaRbNqVN4i7nVjjtWYcM/t5GJF/cSRVhKsCxJ9bi3HmKsQ&#xa;pEORkSooqUCLJaNt6LR2WUMQG1oURKQtbaFSVIVxQuUtJ97oVVAAAAAAABKs&#xa;yeEXBPOBM91a8KqJVmTwi4J5wJnurXhVQAAAAEqzJ4RcE84Ez3VrwqolWZPC&#xa;LgnnAme6teAVUAAAAAAAAAEpvEilbSmMYUrjGj2zddTZI+51Y27SWGzL7eRl&#xa;yv3Goca7UxBTr3yzlSvVTDGCrlYRkaay7U7uUo6uhtLMU1JQnqVxJpSRmaCN&#xa;ZcTPuDkrnqJPokW3MxUeFImSMd1FdSnxYzRuPSqO8ytie2hCSNS1obWmSlCe&#xa;K1xUJLvtD90vAezPkd7r8qWEsaXK/X0InnV5NswJbk5LiSUh43ltGpzeSaTJ&#xa;RmepaAOO1x3xkG98g2Nc9eyLBbpBZsn2xFsw6ayhyG3T26g02/yxavKdWlgn&#xa;lEozb3JCN0i0I1RqnVa/angq4q/GrxzyVZGHJ1MtdLMeFTGJb9WbNKWibbI2&#xa;Eb7Bl2vDR09SMkNkn+hh4bxGd6O5IVi+01XY8pC3K4dGjnPUtBbqVcvub+8R&#xa;aFrrroRF5CH7TiDEyVRlpxhaRHDp8akxtKLGLkYMd5D8eMjtO1aaebbcQ2Xa&#xa;oWhKkkRkRgOHCclXlii18n3PdsFuVtGM3FSLeq1Q0aejx6LUqi2zAfpKJK2m&#xa;kQSbdUSUOLQk5SFnIXrqY2W0s0Z5uK8IeE7gvp+z5rtdqaG7kqcOhSaqqNEp&#xa;sST1DKjwn34TMk3Zal6kSTVHa1JCFHvjlfcGO8f3ZKkzrpsa36xJmU1yjSH5&#xa;9MZkOPQFrJa4q1LSZqZUsiUbZ9qZkRmWont8bMOPq/Y9Kx9ZlEtm1KFSpypy&#xa;aQi1afNpchakmRm7DebNBrJWi0uJ3VEpJamZGaTDinRIN4bTN640uK5LHxTk&#xa;6sSMc1WTKVdbKmqae5XCZTIioaYf0UaUpIuBdqo+2M+7Q7rvnLON4F8s2VV7&#xa;bsiBhimUFEKxKNSozlPrsiWy0682l11tLyGHHnXIrBtEyfKNmpRH3g5L4xxF&#xa;ZmKrZoNv0GmsvyKBS/glqqvxmimusKc5VwlOIQnRK3dXDQkiRvcSSWhD6a/i&#xa;bF113XTL7ufHNtVa46LulTqtNpTD8yJuqNSeTdWk1o3VGai0PgZmZaGA41zr&#xa;/wBour1J96mZfiUuLWswSrDpsdu3or3wfS2OrFOOGpZauvmTJJSZ6JTuINSV&#xa;ma976cJ5Mzu9e9k9f2To9xUu5rlvC0HYCaJGiEgqM7KbZm77ZEvl3DhLNade&#xa;S0dLdQk06nyfTZtoINo0WrR08jUl1lvSC0W5UF72/LT2vB9XKL1cLtj31anx&#xa;MeIll2dAdhvwbTo0dyny5c+GtqA0hUeTKUtUl5syT2jjpuum4stDWbizUZ7x&#xa;6hoVVIou1Ra5xeB1TH9e6u08vUtRpXUuv3dWS9PvUKsJBiWSnJGQrpzewalU&#xa;J1hq1bWWaTIpEKK64uVNRr+Y/JWaEK7i2ojLieC9Tr4AAAAAAAJVs0+Dqr84&#xa;F9+9VUFVEq2afB1V+cC+/eqqCqgAAAAAAAAAAAAAAAAAAAAAAAAAAAAAAAAA&#xa;AAAAAAAAAAAAAAAAAAAAAAAAlWzT4OqvzgX371VQVUSrZp8HVX5wL796qoKq&#xa;AAAAAAAD0ToMKpwpFNqUNiXEltLYkR32ycbdbURkpC0nqSkmRmRkfAyMR2PK&#xa;ujZ2JFKmU+rXRjFB6Q50ZC5dStdkiP5GQ2WrsuGguCHUEp1pOiXErSnlU2kA&#xa;GMtu5rdvGiRLltOuwKzSZ7ZOxZsGQh9h5B+VK0GZH/aMmJpX8CWjMrcu7rKq&#xa;VXsK5Zy+WlVS2n0xymO6F28qKtK4spXAi33mVrIi0JSR8ZFtN2r2iSsLIURH&#xa;cW45Jt6du/aSUymHV/dyCT+ZICrgJSWZL/gdpcOzRkJky7r9Nl0eewf9Hcmk&#xa;8f72kjz2e3j7VOD8qqX+h8AIL/aN4k/3gKqAlJ5cybU/k7c2aL0Iz72RW6pR&#xa;4Ec/v5OW8+X+p/tH5OmbS129pVLkszHsNffIojDtdqBF+pJlIYYbV/Siulr8&#xa;/dMN5vW/LOxzRFXFe9xQ6PAJxLKHJC9FPOqPRDTSC1U64o+CW0EpSj4ERmJ1&#xa;Got1Z5mxqpftvTbax/CkJkw7anpJM6uuoVvNv1FBGZMxkmSVoiHqtZkk3t3T&#xa;kRslnYPsW0q2m8JDdQuS6yQpvriuGWqfPQlWm8hlS+0ioVoWrcdDSD01NOvE&#xa;UAAAAAAAAAAABKsyeEXBPOBM91a8KqJVmTwi4J5wJnurXhVQAAAAEqzJ4RcE&#xa;84Ez3VrwqolWZPCLgnnAme6teAVUAAAAAAAAAARuTRbqwNNk1Swrem3Lj+bI&#xa;VJmW1ASSp1CdWrecfpyDMiejKM1LXELRaDNRs72vIiyAAwFlX5Z2RqIm4rIu&#xa;KHWIBuKZW5HXqpl1J6LadQeimnEnwU2skqSfAyIxnxP7xwfYt21tV4R26hbd&#xa;1mhLfXFb0tUCetKdd1DykdpKQnU9G5CHUFrqSdeIw5UzaWtLtKXclmZCho71&#xa;FbYdoVQMv15MVD7Div6MVotfm7pBWAEpLLmTaZ8ncezRehmXfSKJVKPPjl93&#xa;KS2Xz/1P9g89nt4u1Vg/KqV/ofACD/2ieNP94CqgJSeZL/n9pb2zRkJ4z7j9&#xa;Sl0eAwX9Lfmm8X7mlDwZbTd1doorCx7EX3VtuSbhnbv2EpMVhpf38ukvmUAo&#xa;lyXNbtnUSXct2V2BRqTAbN2VNnSEMMMoLyqWsyIv7RKZEq6Nokl0qHT6ta+M&#xa;VnpMnSULiVK6GTIvkY7Z6OxIay4LdWSXXU6pbShKuVVnqBgS0YdbiXdetSq9&#xa;+3LBXy0WqXK+mQUN3Q+3ixUJRFiq4mW+yyhZkehqUKWA9EGDCpkKPTabDYiR&#xa;IjSGI8dhsm22m0kRJQhJaElJERERFwIiHvAAAAAAAAASrZp8HVX5wL796qoK&#xa;qJVs0+Dqr84F9+9VUFVAAAAAAAAAAAAAAAAAAAAAAAAAAAAAAAAAAAAAAAAA&#xa;AAAAAAAAAAAAAAAABKtmnwdVfnAvv3qqgqolWzT4OqvzgX371VQVUAAAAAAA&#xa;AAAAAAAAAAAAAAAAAAAAAAAAAAASrMnhFwTzgTPdWvCqiVZk8IuCecCZ7q14&#xa;VUAAAABKsyeEXBPOBM91a8KqJVmTwi4J5wJnurXgFVAAAAAAAAAAAAAAAAAA&#xa;AAAAAAAAAAAAAAAAAAEq2afB1V+cC+/eqqCqiVbNPg6q/OBffvVVBVQAAAAA&#xa;AAAAAAAAAAAAAAAAAAAAAAAAAAAAAAAAAAAAAAAAAAAAAAAAAAAAfzrvG7rv&#xa;su/LwoFp3jcFJpqLorUpESLVZCGkOyJ777ykpJehbzrrizIuGqj00GK7LGU/&#xa;OXdXpmT/ABgAB2WMp+cu6vTMn+MOyxlPzl3V6Zk/xgAB2WMp+cu6vTMn+MOy&#xa;xlPzl3V6Zk/xgAB2WMp+cu6vTMn+MOyxlPzl3V6Zk/xgAB2WMp+cu6vTMn+M&#xa;OyxlPzl3V6Zk/wAYAAdljKfnLur0zJ/jDssZT85d1emZP8YAAdljKfnLur0z&#xa;J/jDssZT85d1emZP8YAAdljKfnLur0zJ/jDssZT85d1emZP8YAAdljKfnLur&#xa;0zJ/jDssZT85d1emZP8AGAAHZYyn5y7q9Myf4w7LGU/OXdXpmT/GAAHZYyn5&#xa;y7q9Myf4w7LGU/OXdXpmT/GAAN6wHcdy3rnSyEXdc9arLdImTahCbm1J95DM&#xa;j4NlscoSVLMjPkn3U8SPgs/LoY53gAAAAACAbZqnodh2vX4EuXDqVFuhuVAl&#xa;xZLjDrDq4E1hSkqQZHxafdQZHw0Wf2AADir2WMp+cu6vTMn+MOyxlPzl3V6Z&#xa;k/xgAB2WMp+cu6vTMn+MOyxlPzl3V6Zk/wAYAAdljKfnLur0zJ/jDssZT85d&#xa;1emZP8YAAdljKfnLur0zJ/jDssZT85d1emZP8YAAdljKfnLur0zJ/jDssZT8&#xa;5d1emZP8YAAdljKfnLur0zJ/jDssZT85d1emZP8AGAAHZYyn5y7q9Myf4w7L&#xa;GU/OXdXpmT/GAAHZYyn5y7q9Myf4w7LGU/OXdXpmT/GAAHZYyn5y7q9Myf4w&#xa;7LGU/OXdXpmT/GAAHZYyn5y7q9Myf4w7LGU/OXdXpmT/ABgAB2WMp+cu6vTM&#xa;n+MOyxlPzl3V6Zk/xgADmfsqRW42C6EtCnVuTJlWqEhx55bq3ZEipSX3nFKW&#xa;ZmZqdcWo+PdVw4cBWgAAAAAAAAAAAAAAAAAAAAAAAAAAAAH/2Q==&#xa;;" vertex="1" parent="1">
          <mxGeometry x="40" y="230" width="646" height="580" as="geometry"/>
        </mxCell>
        <mxCell id="eI4Sz7O7ysRIpUwbgWsQ-2" value="Text" style="text;html=1;strokeColor=none;fillColor=none;align=center;verticalAlign=middle;whiteSpace=wrap;rounded=0;" vertex="1" parent="1">
          <mxGeometry x="90" y="1050" width="40" height="20" as="geometry"/>
        </mxCell>
        <mxCell id="eI4Sz7O7ysRIpUwbgWsQ-3" value="APP-KombuchaMasterList State passed down to all child components" style="text;html=1;strokeColor=#b85450;fillColor=#f8cecc;align=center;verticalAlign=middle;whiteSpace=wrap;rounded=0;" vertex="1" parent="1">
          <mxGeometry x="250" y="230" width="240" height="40" as="geometry"/>
        </mxCell>
      </root>
    </mxGraphModel>
  </diagram>
</mxfile>
